<svg width="259" height="213" viewBox="0 0 259 213" fill="none" xmlns="http://www.w3.org/2000/svg">
<path d="M198.468 157.823C198.112 158.676 187.352 186.724 187.631 187.469C191.185 179.626 183.578 193.082 190.138 189.861C189.313 191.41 198.393 177.069 197.908 179.013C201.811 159.185 186.973 175.99 198.271 174.187C197.141 175.039 196.035 176.542 195.042 177.823C207.969 171.488 178.599 179.702 191.649 182.281C162.008 168.617 190.791 182.935 189.799 184.175C195.602 182.988 196.08 156.07 200.241 158.545C199.344 157.493 189.194 179.897 188.37 179.441C200.241 158.545 204.412 159.392 200.241 158.545C184.099 152.035 176.186 216.589 197.025 192.667C197.025 192.667 202.026 160.391 198.409 163.043C195.575 165.122 185.479 179.961 198.468 157.823C197.333 159.065 194.867 155.951 193.951 154.663C192.368 153.694 193.521 154.488 190.621 153.306C175.081 143.179 184.865 121.85 215.15 108.289C231.827 98.7431 239.641 88.212 244.263 69.4716C246.789 58.8316 247.426 48.418 241.698 37.2245C240.679 40.7321 239.434 42.6857 236.997 45.2049C220.951 25.0581 193.346 9.89358 161.707 22.8609C138.574 31.3252 130.846 44.0809 141.107 61.4183C156.071 77.9045 168.586 72.6224 180.092 61.4736C184.957 57.3146 188.754 56.1962 192.563 60.9952C198.607 70.5945 188.331 73.7029 182.512 77.5654C173.995 84.2605 167.945 91.3146 162.665 98.441C161.977 97.3032 161.818 93.225 161.48 90.718C153.48 99.7249 145.563 112.272 145.013 122.467C144.928 124.419 144.883 126.325 144.88 128.185C145.173 128.505 145.368 128.901 145.386 129.346C145.709 137.444 147.873 145.332 150.092 153.081C150.176 153.374 150.267 153.663 150.354 153.953C152.755 159.669 155.851 165.108 159.374 170.19C161.709 173.56 164.063 176.92 166.491 180.227C167.831 181.453 169.231 182.616 170.667 183.736C172.502 185.166 176.874 187.922 177.184 188.031C182.678 189.957 186.37 194.199 189.088 199.184C189.296 198.594 189.528 198.027 189.787 197.449C201.341 179.841 192.564 179.573 197.362 157.372" fill="#575756"/>
<path d="M176.546 61.6665C176.815 61.759 177.087 61.843 177.358 61.9288C177.775 61.8917 177.951 61.9752 177.918 62.0179C178.107 62.066 178.296 62.1214 178.458 62.1402C178.516 62.1472 178.664 62.143 178.799 62.1485C178.852 62.1369 178.899 62.1281 178.932 62.1215C179.458 61.9426 179.986 61.8444 180.507 61.8355C180.628 61.72 180.749 61.6038 180.87 61.4876C182.265 60.2941 183.572 59.353 184.817 58.7289C184.656 55.2391 184.835 51.7257 185.432 48.3012C186.962 39.5204 190.944 31.508 197.398 25.3278C199.229 23.5753 201.252 22.0551 203.411 20.7628C191.48 17.0047 177.988 16.827 163.64 22.4154C163.633 22.4338 163.618 22.448 163.61 22.4634C163.599 22.489 163.587 22.5188 163.565 22.5528C163.234 23.2331 162.865 23.8953 162.55 24.5836C161.915 25.9678 161.373 27.3945 160.92 28.8469C160.795 29.247 160.679 29.6482 160.567 30.0508C160.322 30.9201 160.51 30.2858 160.553 30.1041C160.392 30.7882 160.24 31.4733 160.11 32.1629C159.876 33.4115 159.673 34.6802 159.572 35.9472C159.517 36.6349 159.5 37.3289 159.492 38.0174C159.491 38.0756 159.492 38.134 159.491 38.1932C159.492 38.2151 159.493 38.3031 159.49 38.4975C159.492 38.5311 159.492 38.5637 159.493 38.5897C159.549 39.6907 159.611 40.7858 159.741 41.8817C159.885 43.0856 160.089 44.2825 160.357 45.4666C160.431 45.7948 160.517 46.12 160.601 46.4456C160.629 46.4968 160.93 47.5016 160.988 47.665C161.357 48.7365 161.786 49.7868 162.282 50.8049C162.472 51.195 162.675 51.579 162.884 51.9587C162.902 51.9742 163.226 52.51 163.373 52.7315C163.993 53.66 164.679 54.5446 165.43 55.3717C165.465 55.4109 165.522 55.4822 165.583 55.5607C165.709 55.7079 165.908 55.8618 166.034 55.9769C166.454 56.3573 166.888 56.7211 167.337 57.0656C167.792 57.4147 168.262 57.7452 168.744 58.0558C168.761 58.071 168.969 58.1913 169.133 58.2914C169.305 58.3831 169.514 58.4961 169.53 58.5051C170.169 58.8316 170.813 59.1497 171.457 59.4651C173.114 60.2809 174.799 61.0591 176.544 61.6659" fill="#DADADA"/>
<path d="M194.639 68.8577C196.489 68.9594 198.329 69.1853 200.137 69.5419C214.086 72.2939 226.917 81.6931 233.331 94.4458C238.885 87.845 242.46 79.9442 245.04 69.4853C247.566 58.8446 248.204 48.432 242.475 37.2382C241.456 40.7458 240.211 42.6986 237.774 45.2179C235.473 42.3282 232.932 39.5436 230.177 36.9274C228.408 37.088 226.645 37.3121 224.896 37.6324C224.046 37.7882 223.198 37.9659 222.358 38.1681C222.039 38.2442 221.722 38.3337 221.404 38.4107C221.268 38.4555 221.127 38.491 220.991 38.5324C219.424 39.01 217.884 39.5841 216.392 40.2622C215.618 40.6148 214.865 41.0024 214.114 41.3997C214.013 41.4528 213.944 41.4876 213.891 41.515C213.844 41.5447 213.79 41.5788 213.715 41.6254C213.394 41.8247 213.073 42.0232 212.757 42.2297C211.316 43.172 209.948 44.2242 208.661 45.3665C208.273 45.7112 207.894 46.0668 207.517 46.4244C207.513 46.4336 207.495 46.4456 207.479 46.462C207.385 46.5578 207.26 46.6871 207.216 46.7324C206.586 47.3916 205.962 48.0657 205.387 48.775C204.62 49.7221 203.939 50.7488 203.299 51.7849C203.179 51.9776 203.067 52.176 202.946 52.3675C202.926 52.3958 202.915 52.4176 202.9 52.4398C202.891 52.461 202.876 52.4773 202.865 52.5043C202.617 52.9689 202.36 53.4303 202.115 53.8984C199.874 58.2034 198.015 62.6788 195.414 66.7941C195.324 66.9378 195.223 67.0707 195.117 67.1954C195.037 67.7835 194.871 68.3349 194.638 68.8574" fill="#DADADA"/>
<path d="M182.546 106.57C185.958 109.435 188.823 112.796 191.252 116.517C192.506 118.438 193.805 120.642 194.626 122.932C197.373 120.273 200.687 117.662 204.549 115.179C204.791 114.048 204.977 112.913 205.06 111.757C205.089 111.354 205.1 110.953 205.118 110.551C205.121 110.49 205.121 110.345 205.123 110.241C205.106 109.716 205.073 109.191 205.026 108.67C204.846 106.671 204.497 104.659 204.023 102.707C204.109 103.095 203.743 101.826 203.65 101.568C203.499 101.148 203.334 100.731 203.158 100.319C202.848 99.5897 202.486 98.8906 202.114 98.191C202.097 98.1661 202.081 98.1413 202.058 98.108C201.939 97.9263 201.825 97.7415 201.705 97.5609C201.465 97.1991 201.214 96.8439 200.953 96.496C200.432 95.7968 199.873 95.1239 199.283 94.4798C199.262 94.4573 198.929 94.1115 198.737 93.9083C198.719 93.8911 198.704 93.8764 198.688 93.8601C198.367 93.5646 198.05 93.2648 197.721 92.9768C197.035 92.3747 196.324 91.8011 195.593 91.252C194.111 90.1348 192.543 89.1462 190.964 88.1711C190.502 87.8841 190.036 87.6007 189.567 87.3221C189.485 87.273 189.067 87.0603 188.999 86.9937C188.999 86.9929 188.999 86.9936 188.991 86.9908C188.209 86.5611 187.422 86.1419 186.616 85.7549C185.698 85.3147 184.763 84.9123 183.806 84.5644C183.359 84.4024 182.907 84.2513 182.451 84.1168C182.389 84.0999 182.315 84.0695 182.239 84.0426C182.188 84.0403 182.135 84.0358 182.076 84.0245C181.176 83.8611 180.286 83.736 179.375 83.6961C179.386 83.7145 178.701 83.7433 178.451 83.7779C177.998 83.8408 177.553 83.9377 177.111 84.0511C177.08 84.0586 177.049 84.0633 177.019 84.0694C172.095 88.7907 168.086 93.6395 164.453 98.5245C171.084 99.1452 177.535 102.364 182.543 106.57" fill="#DADADA"/>
<path d="M151.463 155.467C153.679 148.47 159.742 142.67 166.279 139.61C172.235 136.82 178.963 136.316 185.256 138.076C185.583 136.463 186.147 134.811 186.949 133.137C186.634 132.785 186.373 132.385 186.193 131.946C186.182 131.919 186.175 131.898 186.167 131.877C186.159 131.86 186.15 131.843 186.141 131.825C186.073 131.734 186.007 131.631 185.937 131.547C185.929 131.536 185.919 131.527 185.91 131.517C185.747 131.406 185.593 131.239 185.441 131.12C185.299 131.009 184.207 130.357 184.04 130.19C184.026 130.184 184.012 130.179 184.002 130.166C183.725 130.024 183.446 129.887 183.165 129.755C181.072 128.771 178.865 128.037 176.647 127.396C176.217 127.272 175.786 127.153 175.356 127.034C175.294 127.017 175.244 126.999 175.203 126.982C175.021 126.955 174.829 126.94 174.699 126.915C173.55 126.689 172.389 126.519 171.222 126.412C170.506 126.347 169.789 126.305 169.07 126.288C169.063 126.284 168.883 126.285 168.708 126.282C168.516 126.287 168.125 126.292 168.109 126.293C166.941 126.343 165.776 126.459 164.62 126.638C163.926 126.745 163.236 126.874 162.55 127.025C162.301 127.079 161.184 127.367 161.276 127.331C160.287 127.621 159.31 127.95 158.346 128.317C157.126 128.781 155.929 129.301 154.752 129.865C154.175 130.142 153.614 130.463 153.032 130.728C154.065 130.258 152.732 130.896 152.469 131.06C150.553 132.251 148.72 133.587 146.997 135.045C146.883 135.141 146.772 135.239 146.659 135.337C147.138 143.694 148.553 151.067 150.876 157.621C150.884 157.601 150.899 157.585 150.907 157.565C151.063 156.861 151.244 156.161 151.465 155.464" fill="#DADADA"/>
<path d="M182.413 175.566C183.086 171.883 183.998 168.252 185.646 164.872C187.604 160.858 190.241 157.24 193.081 153.811C192.815 153.647 192.564 153.489 192.34 153.342C190.851 152.372 189.605 151.295 188.579 150.135C188.131 150.344 187.685 150.557 187.245 150.782C186.984 150.916 186.725 151.054 186.467 151.194C186.435 151.211 186.368 151.248 186.296 151.289C186.138 151.383 185.805 151.579 185.797 151.584C185.6 151.706 185.404 151.83 185.209 151.955C184.821 152.207 184.437 152.464 184.059 152.731C183.215 153.325 182.394 153.956 181.602 154.619C181.209 154.951 180.822 155.291 180.444 155.638C180.263 155.802 179.624 156.439 179.636 156.416C178.513 157.599 177.446 158.824 176.47 160.134C175.892 160.909 175.343 161.706 174.823 162.522C174.61 162.858 174.401 163.198 174.197 163.54C174.16 163.601 174.129 163.652 174.103 163.696C174.072 163.752 174.026 163.842 173.95 163.983C173.107 165.541 172.364 167.153 171.725 168.805C171.394 169.66 171.088 170.525 170.811 171.399C170.672 171.837 170.542 172.277 170.415 172.719C170.401 172.754 170.372 172.865 170.334 172.985C170.321 173.044 170.305 173.119 170.281 173.223C169.884 174.968 169.55 176.717 169.345 178.495C169.23 179.47 169.149 180.449 169.1 181.429C169.081 181.834 169.067 182.237 169.057 182.641C169.053 182.801 169.053 182.96 169.051 183.118C172.764 186.229 176.926 189.047 181.527 191.634C181.507 190.211 181.548 188.786 181.641 187.363C181.214 183.438 181.726 179.32 182.413 175.566Z" fill="#DADADA"/>
<path d="M161.847 172.515C162.485 173.148 163.119 173.785 163.753 174.42C163.781 174.447 163.801 174.468 163.82 174.488C163.833 174.502 163.844 174.51 163.858 174.525C164.117 174.783 164.374 175.041 164.634 175.298C166.395 177.042 168.188 178.772 170.134 180.31C171.411 181.318 172.709 182.291 173.996 183.272C173.766 181.875 173.62 180.45 173.542 179.047C173.333 175.273 173.854 171.552 175.166 168.005C176.552 164.261 178.6 161.002 181.124 157.937C182.298 156.511 183.695 155.324 184.943 153.975C185.675 153.184 186.468 152.37 187.342 151.693C186.012 150.701 184.913 149.41 184.096 147.746C183.994 147.54 183.903 147.331 183.815 147.121C183.467 147.118 183.113 147.128 182.744 147.162C180.977 147.327 179.3 147.776 177.693 148.528C174.559 149.996 171.922 152.268 169.647 154.85C165.412 159.661 162.199 165.441 161.027 171.712C161.301 171.979 161.575 172.246 161.847 172.515Z" fill="#DADADA"/>
<path d="M188.175 126.201C187.025 124.78 185.748 123.453 184.307 122.246C180.504 119.061 176.079 116.701 171.256 115.501C163.967 113.687 156.108 114.79 149.906 118.867C149.693 120.984 149.53 123.107 149.425 125.233C149.212 129.545 149.21 132.273 149.395 136.14C149.401 136.263 149.409 136.384 149.415 136.507C150.037 135.847 150.706 135.238 151.421 134.681C152.883 133.543 154.592 132.608 156.252 131.789C159.617 130.127 163.347 129.378 167.046 128.893C170.724 128.412 174.624 128.003 178.275 128.864C180.793 129.459 182.704 131.039 184.402 132.869C185.301 130.451 186.567 128.162 188.175 126.201Z" fill="#DADADA"/>
<path d="M3.6 63V30.5H12.2V63H3.6ZM29.4301 63V30.5H38.0301V55.8H50.3301V63H29.4301ZM55.9438 63V30.5H64.5438V63H55.9438ZM71.7641 63V30.5H80.3641V42.6H80.5641L88.7641 30.5H98.1641L88.4641 43.7L100.064 63H90.6641L83.4641 50.5L80.3641 54.9V63H71.7641ZM103.161 63V30.5H124.161V37.7H111.761V42.8H122.361V50H111.761V55.8H124.661V63H103.161ZM9.8 126V100.7H1.2V93.5H27V100.7H18.4V126H9.8ZM31.8227 126V93.5H40.4227V105.6H50.1227V93.5H58.7227V126H50.1227V113.1H40.4227V126H31.8227ZM65.9047 126V93.5H86.9047V100.7H74.5047V105.8H85.1047V113H74.5047V118.8H87.4047V126H65.9047ZM103.698 126V93.5H112.898L117.798 106.8C118.098 107.7 118.381 108.633 118.648 109.6C118.914 110.567 119.198 111.533 119.498 112.5H119.698C119.998 111.533 120.281 110.567 120.548 109.6C120.814 108.633 121.098 107.7 121.398 106.8L126.098 93.5H135.298V126H127.498V116.4C127.498 115.3 127.564 114.067 127.698 112.7C127.831 111.3 127.981 109.9 128.148 108.5C128.314 107.1 128.464 105.867 128.598 104.8H128.398L125.698 112.6L121.698 123.35H117.098L113.098 112.6L110.498 104.8H110.298C110.431 105.867 110.581 107.1 110.748 108.5C110.914 109.9 111.064 111.3 111.198 112.7C111.331 114.067 111.398 115.3 111.398 116.4V126H103.698ZM156.216 126.6C153.216 126.6 150.583 125.933 148.316 124.6C146.049 123.233 144.283 121.283 143.016 118.75C141.749 116.217 141.116 113.167 141.116 109.6C141.116 106.033 141.749 103.017 143.016 100.55C144.283 98.05 146.049 96.15 148.316 94.85C150.583 93.55 153.216 92.9 156.216 92.9C159.216 92.9 161.849 93.55 164.116 94.85C166.383 96.15 168.149 98.05 169.416 100.55C170.683 103.017 171.316 106.033 171.316 109.6C171.316 113.167 170.683 116.217 169.416 118.75C168.149 121.283 166.383 123.233 164.116 124.6C161.849 125.933 159.216 126.6 156.216 126.6ZM156.216 119.2C158.183 119.2 159.716 118.333 160.816 116.6C161.949 114.867 162.516 112.533 162.516 109.6C162.516 106.633 161.949 104.35 160.816 102.75C159.716 101.117 158.183 100.3 156.216 100.3C154.283 100.3 152.749 101.117 151.616 102.75C150.483 104.35 149.916 106.633 149.916 109.6C149.916 112.533 150.483 114.867 151.616 116.6C152.749 118.333 154.283 119.2 156.216 119.2ZM182.147 126L172.547 93.5H181.647L185.047 107.7C185.514 109.433 185.914 111.15 186.247 112.85C186.614 114.517 187.014 116.233 187.447 118H187.647C188.114 116.233 188.514 114.517 188.847 112.85C189.214 111.15 189.614 109.433 190.047 107.7L193.347 93.5H202.147L192.547 126H182.147ZM205.26 126V93.5H213.86V126H205.26ZM221.08 126V93.5H242.08V100.7H229.68V105.8H240.28V113H229.68V118.8H242.58V126H221.08ZM3.6 189V156.5H12.8L17.7 169.8C18 170.7 18.2833 171.633 18.55 172.6C18.8167 173.567 19.1 174.533 19.4 175.5H19.6C19.9 174.533 20.1833 173.567 20.45 172.6C20.7167 171.633 21 170.7 21.3 169.8L26 156.5H35.2V189H27.4V179.4C27.4 178.3 27.4667 177.067 27.6 175.7C27.7333 174.3 27.8833 172.9 28.05 171.5C28.2167 170.1 28.3667 168.867 28.5 167.8H28.3L25.6 175.6L21.6 186.35H17L13 175.6L10.4 167.8H10.2C10.3333 168.867 10.4833 170.1 10.65 171.5C10.8167 172.9 10.9667 174.3 11.1 175.7C11.2333 177.067 11.3 178.3 11.3 179.4V189H3.6ZM56.1184 189.6C53.1184 189.6 50.485 188.933 48.2184 187.6C45.9517 186.233 44.185 184.283 42.9184 181.75C41.6517 179.217 41.0184 176.167 41.0184 172.6C41.0184 169.033 41.6517 166.017 42.9184 163.55C44.185 161.05 45.9517 159.15 48.2184 157.85C50.485 156.55 53.1184 155.9 56.1184 155.9C59.1184 155.9 61.7517 156.55 64.0184 157.85C66.285 159.15 68.0517 161.05 69.3184 163.55C70.585 166.017 71.2184 169.033 71.2184 172.6C71.2184 176.167 70.585 179.217 69.3184 181.75C68.0517 184.283 66.285 186.233 64.0184 187.6C61.7517 188.933 59.1184 189.6 56.1184 189.6ZM56.1184 182.2C58.085 182.2 59.6184 181.333 60.7184 179.6C61.8517 177.867 62.4184 175.533 62.4184 172.6C62.4184 169.633 61.8517 167.35 60.7184 165.75C59.6184 164.117 58.085 163.3 56.1184 163.3C54.185 163.3 52.6517 164.117 51.5184 165.75C50.385 167.35 49.8184 169.633 49.8184 172.6C49.8184 175.533 50.385 177.867 51.5184 179.6C52.6517 181.333 54.185 182.2 56.1184 182.2ZM82.0492 189L72.4492 156.5H81.5492L84.9492 170.7C85.4159 172.433 85.8159 174.15 86.1492 175.85C86.5159 177.517 86.9159 179.233 87.3492 181H87.5492C88.0159 179.233 88.4159 177.517 88.7492 175.85C89.1159 174.15 89.5159 172.433 89.9492 170.7L93.2492 156.5H102.049L92.4492 189H82.0492ZM105.163 189V156.5H113.763V189H105.163ZM120.983 189V156.5H141.983V163.7H129.583V168.8H140.183V176H129.583V181.8H142.483V189H120.983Z" fill="url(#paint0_linear_24_42)"/>
<defs>
<linearGradient id="paint0_linear_24_42" x1="0" y1="14" x2="266.56" y2="153.315" gradientUnits="userSpaceOnUse">
<stop stop-color="#2B5E48"/>
<stop offset="1" stop-color="#04B4E4"/>
</linearGradient>
</defs>
</svg>
