<?xml version="1.0" encoding="UTF-8"?>
<!DOCTYPE svg PUBLIC "-//W3C//DTD SVG 1.1//EN" "http://www.w3.org/Graphics/SVG/1.1/DTD/svg11.dtd">
<svg version="1.1" xmlns="http://www.w3.org/2000/svg" xmlns:xlink="http://www.w3.org/1999/xlink" x="0" y="0" width="334.736" height="256.103" viewBox="0, 0, 334.736, 256.103">
  <g id="g3650">
    <path d="M238.025,221.11 L241.586,219.28 C243.924,223.861 246.605,227.181 248.032,228.925 C244.375,228.048 241.971,227.683 238.025,221.11 M334.62,42.736 L328.997,47.927 C330.808,35.22 326.786,18.17 317.148,7.582 C315.213,16.868 311.408,35.668 301.129,43.597 C287.7,31.992 266.476,29.495 235.82,37.907 C225.13,32.679 210.517,20.817 198.846,0.002 C184.891,18.17 183.591,39.756 192.96,60.755 L183.026,56.139 C187.645,74.716 191.139,80.857 198.764,86.362 C196.734,101.957 193.579,115.137 200.927,124.623 C155.051,129.388 130.689,147.883 127.703,180.025 C127.3,184.365 123.246,187.45 118.967,186.62 C95.221,182.033 96.542,151.441 126.439,120.144 C141.881,100.397 146.135,83.824 142.497,58.902 C140.312,44.801 135.959,31.903 123.535,21.197 C124.031,25.937 123.488,28.911 121.785,33.155 C92.499,16.709 51.706,11.975 19.881,43.222 C-3.887,64.84 -6.943,84.059 13.976,99.959 C40.155,112.513 52.669,99.969 61.077,80.831 C64.905,73.41 68.94,70.189 75.9,74.113 C87.921,82.737 77.04,91.553 71.916,99.085 C64.924,111.369 61.09,122.873 58.221,134.083 C56.83,133.048 54.632,128.197 52.989,125.335 C47.761,140.157 44.374,159.218 48.726,171.807 C64.705,216.612 90.186,234.783 128.084,238.595 C130.778,238.865 133.186,240.403 134.574,242.728 C144.162,258.764 172.457,256.007 217.046,253.472 C218.035,254.024 219.037,254.565 220.054,255.095 C223.168,256.413 232.647,256.836 237.39,253.862 C241.316,255.069 246.926,255.092 248.375,253.132 C252.209,253.348 255.408,252.821 256.736,251.785 C259.147,251.918 261.037,251.381 262.438,250.406 C262.797,250.6 263.153,250.794 263.515,250.981 C266.632,252.299 276.108,252.722 280.851,249.749 C284.777,250.959 290.387,250.981 291.839,249.021 C295.673,249.234 298.869,248.71 300.197,247.671 C313.558,248.411 310.947,228.645 297.535,226.987 C294.771,226.215 285.098,225.386 280.238,214.617 C277.91,208.4 277.91,202.574 278.674,196.907 C286.337,190.728 292.319,184.009 294.609,176.95 C289.679,174.037 285.934,170.609 283.516,166.27 C284.428,164.186 284.876,161.759 285.149,159.675 C285.379,157.956 285.447,156.2 285.431,154.468 C285.431,154.033 285.441,153.56 285.379,153.131 C316.522,148.449 336.377,122.459 319.861,83.004 C331.037,73.458 335.535,59.28 334.62,42.736" fill="#B2B2B2" id="path3680"/>
    <path d="M334.621,42.736 L328.998,47.927 C330.809,35.22 326.787,18.17 317.149,7.582 C315.214,16.868 311.409,35.668 301.128,43.597 C287.701,31.992 266.477,29.495 235.821,37.908 C225.131,32.679 210.518,20.817 198.847,0.003 C184.892,18.17 183.592,39.756 192.96,60.755 L183.027,56.139 C187.646,74.716 191.14,80.857 198.765,86.362 C197.116,99.029 194.725,110.103 197.823,118.898 C204.1,124.408 210.749,129.502 217.812,133.965 C220.607,135.731 223.474,137.401 226.403,138.954 C226.329,143.73 225.934,149.753 223.803,154.336 C224.735,156.142 228.291,160.256 229.601,161.796 C230.821,163.23 232.066,164.643 233.075,166.238 C234.079,167.824 234.9,169.524 235.543,171.287 C236.919,175.056 237.472,179.101 237.391,183.103 C237.319,186.585 236.656,189.914 235.875,193.291 C234.661,198.546 233.845,204.005 234.073,209.41 C234.245,213.463 235.133,218.248 238.231,221.005 L241.272,219.443 C241.825,217.927 242.905,216.519 244.049,215.355 C247.147,212.202 251.064,209.847 254.896,207.711 C258.334,205.793 261.852,204.02 265.443,202.405 C270.557,200.104 275.519,197.524 280.559,195.073 C280.799,194.957 281.04,194.842 281.281,194.726 C287.517,189.3 292.326,183.491 294.441,177.428 C289.023,174.566 284.283,170.538 281.146,165.141 C279.686,162.63 278.549,155.926 277.867,150.713 C278.505,150.713 279.143,150.703 279.781,150.696 C281.222,150.67 282.657,150.63 284.092,150.794 C285.839,150.994 287.441,151.526 288.86,152.505 C317.971,146.46 335.753,120.968 319.862,83.004 C331.038,73.458 335.536,59.28 334.621,42.736" fill="#EDEDED" id="path3682"/>
    <path d="M287.661,81.248 C292.742,54.544 313.605,54.067 315.223,75.722 C321.661,89.435 335.536,59.28 334.621,42.736 L328.998,47.927 C330.809,35.22 326.787,18.17 317.149,7.582 C315.214,16.867 311.409,35.668 301.128,43.597 C287.701,31.992 266.477,29.495 235.821,37.907 C225.131,32.678 210.518,20.817 198.847,0.002 C184.892,18.17 183.592,39.756 192.96,60.754 L183.027,56.139 C187.646,74.716 191.14,80.857 198.765,86.362 C197.116,99.029 194.725,110.102 197.823,118.897 C204.1,124.408 210.749,129.501 217.812,133.965 C219.328,134.922 229.441,140.298 230.997,141.195 C202.918,80.78 264.628,31.036 287.661,81.248" fill="#B2B2B2" id="path3684"/>
    <path d="M307.171,236.258 L302.669,230.255 C304.224,232.328 302.679,237.056 295.928,231.285 C297.191,238.069 291.748,236.42 284.09,231.988 C289.232,240.905 274.788,234.505 268.285,235.377 C270.016,237.573 266.635,240.947 259.963,235.377 C259.963,235.377 258.881,240.965 252.467,235.399 C255.229,239.325 244.441,239.323 238.429,236.393 C247.001,245.331 228.522,237.943 224.244,239.93 C225.511,243.899 219.998,248.298 211.117,247.037 L211.313,247.168 C210.509,246.867 209.715,246.527 208.932,246.131 C208.861,246.095 208.791,246.056 208.72,246.019 C207.737,245.411 206.713,244.847 205.79,244.219 C205.723,244.174 205.645,244.134 205.559,244.099 C203.926,242.678 202.486,241.043 201.105,239.382 C200.102,238.178 194.693,230.945 192.502,233.335 C192.437,233.334 192.37,233.335 192.309,233.354 C192.133,233.364 191.964,233.391 191.824,233.45 C191.389,233.634 181.148,235.598 180.794,235.937 C176.662,236.886 173.996,239.524 174.138,244.232 C174.274,248.719 177.223,251.912 181.134,252.926 C185.974,254.182 204.18,253.155 209.17,252.846 C211.594,252.696 214.05,252.436 216.403,251.818 C216.481,251.798 216.568,251.776 216.66,251.755 C217.191,251.832 217.837,251.92 218.537,251.984 L220.122,253.04 L229.673,254.95 L235.351,252.408 L243.029,253.861 L247.001,252.358 L254.096,250.857 L259.553,250.857 L263.647,248.674 L266.921,249.747 L272.924,250.857 L286.661,248.565 L300.198,247.671 L306.245,246.035 C306.245,246.035 307.989,241.102 307.989,240.76 C307.989,240.419 307.171,236.258 307.171,236.258" fill="#575756" id="path3686"/>
    <path d="M136.875,188.507 C136.865,189.714 137.67,191.13 138.373,191.892 C138.806,180.665 140.297,175.895 146.633,168.773 C146.399,171.051 146.252,174.026 146.623,176.614 C149.416,165.094 155.346,155.882 168.101,148.141 C167.156,149.726 166.56,152.087 165.991,154.124 C178.483,140.104 184.308,137.086 201.334,133.778 C200.329,134.602 199.732,136.004 199.144,137.99 C205.567,133.699 209.351,132.612 215.593,133.554 C213.992,132.725 207.187,126.819 205.968,126.674 C200.318,126.005 195.087,128.933 189.635,129.963 C166.941,130.044 152.914,143.629 151.176,144.787 C146.296,148.038 142.434,152.083 139.371,157.069 C136.972,160.977 135.317,165.224 133.899,169.559 C133.139,171.62 129.839,187.474 129.618,188.197 C127.229,187.806 121.857,187.18 118.966,186.62 C95.22,182.033 96.541,151.441 126.438,120.144 C141.88,100.397 146.134,83.824 142.496,58.902 C140.311,44.801 135.958,31.903 123.534,21.197 C124.03,25.937 123.487,28.911 121.784,33.155 C92.498,16.709 51.705,11.975 19.881,43.222 C-3.888,64.84 -6.944,84.059 13.975,99.958 C40.154,112.513 52.668,99.968 61.076,80.831 C64.904,73.41 68.939,70.189 75.899,74.113 C87.92,82.737 77.04,91.553 71.915,99.085 C64.924,111.369 61.089,122.872 58.22,134.083 C56.829,133.047 54.631,128.197 52.989,125.334 C47.76,140.157 44.373,159.217 48.725,171.807 C49.582,174.208 50.466,176.533 51.377,178.783 C51.888,179.025 52.319,179.408 52.56,179.937 C56.933,189.563 63.426,198.03 69.918,206.302 C70.163,206.614 70.416,206.918 70.663,207.227 C76.374,212.952 82.789,218 89.543,222.407 C94.02,225.329 98.516,228.231 103.074,231.031 C105.295,231.853 107.558,232.57 109.843,233.216 C112.762,234.04 119.397,235.218 119.825,235.197 C127.406,234.82 133.951,238.128 139.685,242.815 C139.646,241.999 139.647,241.2 139.675,240.374 C144.965,213.407 126.239,217.842 136.871,188.507" fill="#575756" id="path3688"/>
    <path d="M54.796,83.613 C55.167,83.592 55.536,83.56 55.906,83.53 C56.391,83.28 56.645,83.294 56.626,83.362 C56.878,83.327 57.133,83.301 57.338,83.244 C57.411,83.224 57.588,83.146 57.754,83.086 C57.812,83.046 57.865,83.012 57.901,82.988 C58.448,82.513 59.038,82.134 59.662,81.867 C59.751,81.668 59.84,81.468 59.929,81.268 C61.026,79.139 62.142,77.358 63.338,75.991 C61.427,71.853 59.915,67.519 58.951,63.087 C56.478,51.723 57.345,40.08 62.098,29.434 C63.446,26.415 65.141,23.582 67.113,20.957 C50.857,22.29 34.478,28.718 19.903,42.535 C19.903,42.561 19.893,42.585 19.89,42.608 C19.89,42.644 19.89,42.686 19.88,42.738 C19.815,43.723 19.695,44.705 19.653,45.692 C19.568,47.677 19.615,49.668 19.783,51.646 C19.829,52.191 19.886,52.733 19.948,53.275 C20.08,54.446 19.995,53.587 19.958,53.346 C20.1,54.252 20.253,55.155 20.436,56.052 C20.768,57.676 21.147,59.309 21.648,60.89 C21.92,61.748 22.241,62.595 22.57,63.431 C22.597,63.502 22.627,63.572 22.655,63.644 C22.667,63.67 22.711,63.776 22.804,64.012 C22.822,64.052 22.839,64.091 22.853,64.122 C23.462,65.425 24.075,66.718 24.772,67.978 C25.538,69.362 26.373,70.708 27.279,72.007 C27.53,72.367 27.793,72.718 28.055,73.07 C28.114,73.118 28.972,74.184 29.122,74.353 C30.095,75.466 31.13,76.524 32.23,77.51 C32.651,77.888 33.085,78.252 33.524,78.608 C33.553,78.618 34.208,79.106 34.495,79.301 C35.7,80.118 36.964,80.849 38.277,81.479 C38.339,81.509 38.443,81.567 38.555,81.632 C38.779,81.748 39.095,81.836 39.304,81.913 C39.998,82.166 40.701,82.392 41.413,82.587 C42.134,82.785 42.864,82.953 43.599,83.091 C43.627,83.101 43.937,83.144 44.185,83.184 C44.438,83.21 44.745,83.244 44.769,83.247 C45.701,83.327 46.636,83.394 47.569,83.458 C49.971,83.628 52.388,83.739 54.794,83.613" fill="#DADADA" id="path3690"/>
    <path d="M80.181,83.395 C82.465,82.607 84.798,81.974 87.156,81.515 C105.353,77.973 125.47,83.014 139.488,95.267 C142.947,84.556 143.378,73.248 141.348,59.339 C139.163,45.237 134.811,32.34 122.386,21.634 C122.882,26.374 122.339,29.347 120.636,33.591 C116.436,31.232 111.998,29.118 107.384,27.313 C105.327,28.378 103.308,29.517 101.354,30.765 C100.404,31.372 99.468,32.004 98.553,32.662 C98.205,32.911 97.867,33.175 97.52,33.425 C97.378,33.546 97.226,33.658 97.082,33.775 C95.424,35.124 93.847,36.576 92.379,38.13 C91.618,38.937 90.9,39.776 90.188,40.626 C90.092,40.74 90.026,40.816 89.976,40.875 C89.934,40.934 89.885,41.002 89.818,41.095 C89.528,41.494 89.238,41.892 88.958,42.297 C87.682,44.145 86.548,46.09 85.556,48.104 C85.256,48.712 84.974,49.328 84.694,49.946 C84.694,49.959 84.679,49.982 84.667,50.01 C84.601,50.172 84.513,50.39 84.483,50.466 C84.046,51.573 83.624,52.695 83.279,53.835 C82.819,55.357 82.502,56.933 82.239,58.5 C82.189,58.792 82.151,59.087 82.099,59.378 C82.089,59.422 82.086,59.454 82.079,59.488 C82.079,59.518 82.069,59.545 82.069,59.583 C81.997,60.267 81.914,60.951 81.849,61.637 C81.26,67.943 81.218,74.266 80.101,80.52 C80.063,80.738 80.007,80.948 79.94,81.151 C80.133,81.901 80.204,82.649 80.18,83.395" fill="#DADADA" id="path3692"/>
    <path d="M84.131,134.921 C89.661,136.704 94.774,139.355 99.537,142.655 C101.996,144.36 104.649,146.383 106.767,148.746 C108.776,144.18 111.493,139.394 114.935,134.492 C114.67,133.006 114.337,131.543 113.868,130.105 C113.705,129.604 113.521,129.114 113.345,128.619 C113.318,128.544 113.248,128.369 113.198,128.242 C112.92,127.616 112.622,126.998 112.309,126.391 C111.108,124.064 109.696,121.805 108.164,119.679 C108.459,120.106 107.392,118.752 107.153,118.487 C106.764,118.053 106.36,117.63 105.945,117.219 C105.211,116.491 104.431,115.824 103.637,115.162 C103.605,115.14 103.573,115.118 103.529,115.089 C103.296,114.928 103.067,114.761 102.833,114.602 C102.365,114.283 101.888,113.977 101.402,113.685 C100.428,113.097 99.422,112.559 98.393,112.071 C98.357,112.054 97.785,111.8 97.453,111.649 C97.423,111.637 97.397,111.627 97.37,111.615 C96.837,111.416 96.306,111.21 95.767,111.024 C94.643,110.634 93.502,110.291 92.35,109.987 C90.01,109.367 87.631,108.944 85.245,108.543 C84.545,108.424 83.843,108.311 83.14,108.205 C83.017,108.186 82.407,108.135 82.292,108.088 C82.292,108.087 82.292,108.088 82.282,108.088 C81.126,107.954 79.969,107.835 78.806,107.764 C77.481,107.684 76.154,107.658 74.827,107.709 C74.208,107.733 73.588,107.773 72.971,107.835 C72.888,107.845 72.783,107.845 72.678,107.85 C72.616,107.872 72.549,107.893 72.473,107.908 C71.305,108.154 70.169,108.441 69.05,108.841 C69.072,108.858 68.259,109.23 67.974,109.395 C67.458,109.694 66.969,110.03 66.49,110.385 C66.457,110.409 66.422,110.43 66.389,110.452 C62.765,118.582 60.31,126.415 58.326,134.107 C66.639,131.592 76.011,132.306 84.128,134.923" fill="#DADADA" id="path3694"/>
    <path d="M70.655,209.313 C69.888,199.767 74.356,189.773 80.743,182.856 C86.563,176.553 94.439,172.631 102.903,171.659 C102.504,169.549 102.373,167.275 102.518,164.858 C101.964,164.587 101.452,164.233 101.019,163.79 C100.992,163.763 100.974,163.742 100.953,163.72 C100.935,163.703 100.916,163.687 100.897,163.67 C100.769,163.594 100.639,163.502 100.514,163.435 C100.498,163.425 100.482,163.419 100.466,163.411 C100.214,163.358 99.947,163.232 99.704,163.163 C99.478,163.099 97.839,162.849 97.555,162.729 C97.535,162.729 97.516,162.729 97.497,162.719 C97.093,162.683 96.689,162.655 96.285,162.634 C93.273,162.476 90.248,162.675 87.253,162.992 C86.674,163.054 86.095,163.122 85.517,163.19 C85.434,163.2 85.365,163.203 85.307,163.203 C85.073,163.26 84.834,163.337 84.665,163.37 C83.166,163.663 81.681,164.029 80.219,164.474 C79.323,164.748 78.436,165.051 77.56,165.383 C77.549,165.383 77.333,165.472 77.12,165.555 C76.89,165.655 76.421,165.854 76.402,165.863 C75.016,166.499 73.666,167.212 72.359,167.997 C71.573,168.468 70.803,168.964 70.049,169.484 C69.776,169.672 68.568,170.571 68.662,170.482 C67.61,171.319 66.592,172.198 65.609,173.116 C64.364,174.277 63.174,175.495 62.031,176.756 C61.47,177.374 60.951,178.038 60.379,178.645 C61.395,177.569 60.099,178.996 59.862,179.323 C58.134,181.707 56.578,184.223 55.215,186.833 C55.125,187.005 55.039,187.179 54.951,187.352 C59.64,197.216 64.976,205.429 71.005,212.205 C71.005,212.177 71.015,212.15 71.015,212.122 C70.857,211.195 70.731,210.259 70.655,209.309" fill="#DADADA" id="path3696"/>
    <path d="M117.913,218.364 C116.914,213.581 116.229,208.745 116.556,203.849 C116.946,198.034 118.35,192.364 120.093,186.822 C119.69,186.754 119.31,186.687 118.967,186.62 C116.692,186.181 114.657,185.493 112.848,184.596 C112.41,185.069 111.976,185.546 111.556,186.035 C111.306,186.325 111.061,186.619 110.819,186.915 C110.789,186.952 110.726,187.03 110.659,187.115 C110.515,187.306 110.209,187.706 110.202,187.717 C110.024,187.961 109.848,188.208 109.674,188.455 C109.329,188.95 108.993,189.45 108.667,189.958 C107.94,191.092 107.259,192.258 106.63,193.45 C106.318,194.044 106.018,194.645 105.732,195.251 C105.594,195.539 105.136,196.623 105.139,196.589 C104.365,198.572 103.68,200.577 103.145,202.641 C102.829,203.862 102.558,205.095 102.332,206.337 C102.239,206.848 102.154,207.362 102.076,207.876 C102.062,207.968 102.05,208.045 102.04,208.11 C102.03,208.193 102.019,208.325 101.996,208.533 C101.745,210.83 101.64,213.144 101.681,215.455 C101.702,216.651 101.758,217.847 101.854,219.04 C101.902,219.638 101.961,220.234 102.026,220.83 C102.026,220.879 102.045,221.028 102.059,221.191 C102.072,221.269 102.089,221.368 102.111,221.505 C102.49,223.809 102.948,226.087 103.575,228.337 C103.916,229.571 104.299,230.794 104.723,232.003 C104.899,232.501 105.08,232.996 105.267,233.489 C105.341,233.683 105.419,233.876 105.494,234.068 C111.508,235.999 117.92,237.356 124.748,238.216 C124.024,236.506 123.372,234.764 122.785,232.999 C120.338,228.466 118.931,223.238 117.913,218.364" fill="#DADADA" id="path3698"/>
    <path d="M91.58,224.802 C92.661,225.253 93.74,225.71 94.818,226.166 C94.865,226.185 94.9,226.2 94.933,226.215 C94.955,226.225 94.972,226.23 94.996,226.241 C95.436,226.425 95.874,226.61 96.314,226.792 C99.298,228.033 102.314,229.241 105.421,230.141 C107.459,230.731 109.504,231.267 111.541,231.82 C110.576,230.244 109.698,228.594 108.914,226.938 C106.806,222.48 105.604,217.727 105.443,212.794 C105.275,207.588 106.145,202.641 107.684,197.695 C108.4,195.393 109.503,193.271 110.347,191.026 C110.841,189.71 111.398,188.337 112.121,187.088 C110.027,186.544 108.064,185.525 106.259,183.916 C106.035,183.718 105.823,183.51 105.613,183.299 C105.191,183.467 104.768,183.653 104.34,183.876 C102.287,184.946 100.483,186.314 98.913,188.014 C95.851,191.331 93.784,195.375 92.308,199.615 C89.561,207.514 88.524,216.08 90.194,224.235 C90.657,224.423 91.119,224.61 91.58,224.802" fill="#DADADA" id="path3700"/>
    <path d="M100.586,155.872 C98.498,154.721 96.304,153.747 93.969,152.998 C87.811,151.021 81.306,150.348 74.892,151.272 C65.199,152.669 56.252,157.871 50.769,165.851 C51.553,168.515 52.401,171.16 53.32,173.781 C55.184,179.096 56.523,182.394 58.65,186.976 C58.717,187.121 58.786,187.264 58.854,187.409 C59.28,186.306 59.789,185.24 60.378,184.216 C61.583,182.12 63.187,180.149 64.788,178.342 C68.034,174.677 72.169,171.935 76.397,169.529 C80.601,167.136 85.11,164.722 89.942,163.965 C93.275,163.444 96.36,164.412 99.31,165.788 C99.206,162.424 99.609,159.034 100.586,155.872" fill="#DADADA" id="path3702"/>
    <path d="M312.152,135.153 C315.244,129.197 295.548,102.445 285.864,102.445 C276.435,102.914 250.643,114.143 249.444,143.079 C249.444,149.416 260.816,149.591 265.456,150.651 C281.601,160.541 313.92,140.793 312.152,135.153" fill="#575756" id="path3704"/>
    <path d="M275.111,93.657 C275.111,82.683 273.139,71.355 262.087,71.355 C251.033,71.355 236.037,79.87 236.037,97.172 C236.037,108.145 245.315,112.176 256.368,112.176 C267.42,112.176 275.111,104.631 275.111,93.657" fill="#575756" id="path3706"/>
    <path d="M324.404,105.583 C323.942,103.206 323.74,100.803 323.381,98.415 C321.985,89.161 317.058,80.737 313.515,71.997 C308.642,70.288 303.6,69.916 299.439,70.674 C288.632,72.646 289.493,84.075 292.196,94.805 C294.898,105.535 304.274,111.541 315.082,109.569 C318.632,108.922 321.884,107.881 324.56,106.398 C324.504,106.112 324.454,105.837 324.404,105.583" fill="#575756" id="path3708"/>
    <path d="M305.741,126.544 C305.272,125.462 304.261,124.82 303.101,124.714 C302.632,124.672 301.508,124.92 302.024,125.598 C302.222,125.856 302.416,126.172 302.583,126.494 C301.77,127.748 301.235,129.126 300.152,130.247 C298.956,131.486 297.459,132.43 295.913,133.172 C294.115,134.036 292.197,134.691 290.234,135.198 C290.306,134.726 290.265,134.24 290.264,133.676 C290.254,132.525 290.264,131.375 290.234,130.224 C290.191,128.656 290.267,126.951 289.934,125.383 C290.671,125.334 291.409,125.126 292.131,124.699 C292.786,124.312 293.329,123.778 293.786,123.173 C294.536,122.395 295.178,121.483 295.756,120.656 C297.139,118.678 298.388,116.187 297.968,113.697 C297.592,111.473 295.726,110.284 293.66,109.825 C290.774,109.183 287.475,109.44 284.549,109.634 C281.215,109.856 277.957,110.27 274.851,111.552 C274.771,111.584 274.452,111.747 274.385,111.803 C272.115,113.69 275.104,116.416 276.493,117.7 C278.808,119.842 281.385,121.688 284.069,123.338 C285.584,124.27 287.315,125.212 289.072,125.371 C288.987,127.074 289.31,128.859 289.349,130.537 C289.372,131.478 289.388,132.421 289.362,133.362 C289.341,134.1 289.22,134.765 289.332,135.421 C287.362,135.883 285.358,136.207 283.394,136.445 C279.074,136.969 274.295,137.13 270.277,135.194 C268.566,134.37 267.061,133.129 265.941,131.592 C264.84,130.083 264.452,128.425 263.842,126.728 C263.875,126.714 263.905,126.694 263.94,126.68 C264.254,126.55 264.599,126.471 264.89,126.29 C265.021,126.209 265.14,126.09 265.263,125.996 C265.327,125.958 265.375,125.905 265.409,125.838 C265.475,125.712 265.487,125.726 265.445,125.879 C266.038,125.72 265.726,125.154 265.278,125.072 C264.816,124.987 264.399,124.79 263.906,124.79 C263.279,124.79 262.67,125.048 262.129,125.339 C261.237,125.819 260.567,126.514 260.034,127.365 C259.547,128.14 261.105,128.438 261.904,128.167 C262.015,131.539 265.311,134.82 267.979,136.296 C272.459,138.776 277.747,138.876 282.72,138.416 C287.839,137.943 293.204,136.882 297.859,134.628 C299.881,133.65 303.161,131.651 304.491,129.183 C304.584,129.173 304.67,129.152 304.745,129.115 C305.233,128.88 305.691,128.612 305.89,128.077 C306.077,127.577 305.946,127.016 305.741,126.544" fill="#262626" id="path3710"/>
  </g>
  <g id="g3714" opacity="0.25">
    <path d="M296.374,113.941 C295.066,112.687 293.578,111.889 291.786,111.556 C290.544,111.326 288.156,111.196 287.453,112.567 C287.375,112.721 287.436,112.949 287.555,113.061 C288.247,113.718 289.325,113.905 290.226,114.083 C291.439,114.321 292.656,114.649 293.765,115.211 C294.437,115.553 295.253,115.647 295.946,115.293 C296.433,115.045 296.895,114.439 296.374,113.941" fill="#FFFFFF" id="path3712"/>
    <path d="M269.71,97.804 C271.412,89.806 265.815,83.529 257.956,84.462 C251.336,85.247 245.54,89.931 244.614,96.534 C243.789,102.413 249.041,107.672 256.685,108.605 C263.303,109.413 268.322,104.325 269.71,97.804" fill="#2B2600" id="path3716"/>
    <path d="M266.156,97.563 C266.156,101.673 262.824,105.005 258.714,105.005 C254.604,105.005 251.272,101.673 251.272,97.563 C251.272,93.453 254.604,90.121 258.714,90.121 C262.824,90.121 266.156,93.453 266.156,97.563" fill="#0A0900" id="path3718"/>
    <path d="M267.804,93.78 C267.804,96.587 265.528,98.863 262.721,98.863 C259.914,98.863 257.638,96.587 257.638,93.78 C257.638,90.973 259.914,88.697 262.721,88.697 C265.528,88.697 267.804,90.973 267.804,93.78" fill="#FFFFFF" id="path3720"/>
    <path d="M261.822,102.914 C261.822,101.759 260.885,100.822 259.73,100.822 C258.576,100.822 257.639,101.759 257.639,102.914 C257.639,104.069 258.576,105.005 259.73,105.005 C260.885,105.005 261.822,104.069 261.822,102.914" fill="#FFFFFF" id="path3722"/>
    <path d="M315.812,96.851 C317.186,88.853 312.667,82.576 306.321,83.509 C300.976,84.294 296.296,88.978 295.548,95.58 C294.883,101.46 299.123,106.719 305.295,107.652 C310.639,108.459 314.691,103.372 315.812,96.851" fill="#2B2600" id="path3724"/>
    <path d="M313.567,95.329 C313.567,98.991 310.598,101.96 306.935,101.96 C303.273,101.96 300.304,98.991 300.304,95.329 C300.304,91.666 303.273,88.697 306.935,88.697 C310.598,88.697 313.567,91.666 313.567,95.329" fill="#0A0900" id="path3726"/>
    <path d="M314.273,92.827 C314.273,95.634 312.434,97.91 310.169,97.91 C307.901,97.91 306.065,95.634 306.065,92.827 C306.065,90.02 307.901,87.744 310.169,87.744 C312.434,87.744 314.273,90.02 314.273,92.827" fill="#FFFFFF" id="path3728"/>
    <path d="M309.442,101.961 C309.442,100.806 308.686,99.869 307.753,99.869 C306.821,99.869 306.065,100.806 306.065,101.961 C306.065,103.115 306.821,104.052 307.753,104.052 C308.686,104.052 309.442,103.115 309.442,101.961" fill="#FFFFFF" id="path3730"/>
    <path d="M330.864,47.729 C329.836,48.635 328.648,49.295 327.588,50.153 C326.992,50.636 326.436,51.177 325.882,51.713 C325.844,51.469 325.805,51.226 325.76,50.985 C325.732,50.837 325.702,50.691 325.674,50.544 C325.965,47.342 326.038,44.117 325.919,40.895 C325.797,37.566 325.595,34.145 324.761,30.913 C323.864,27.437 322.499,24.099 321.614,20.633 C321.552,20.388 321.389,20.19 321.163,20.036 C320.706,18.426 320.185,16.83 319.702,15.234 C319.464,14.446 317.632,14.566 317.579,15.417 L317.555,15.417 C317.704,18.065 316.977,20.393 315.871,22.775 C314.869,24.932 314.562,27.361 313.797,29.623 C312.928,32.197 311.856,34.707 310.704,37.179 C310.289,37.437 309.966,37.776 309.794,38.201 C309.121,39.864 308.448,41.528 307.775,43.192 C307.533,43.791 307.577,44.295 307.819,44.704 C307.435,44.704 307.053,44.732 306.682,44.798 C305.517,45.004 302.884,46.251 303.876,47.916 C307.9,55.362 311.778,62.862 315.067,70.667 C315.115,70.781 315.175,70.889 315.241,70.993 C315.215,71.506 315.252,72.058 315.275,72.524 C315.353,74.06 315.629,75.606 315.813,77.132 C316.006,78.727 318.761,78.548 319.429,77.441 C319.523,77.286 319.614,77.129 319.707,76.973 C320.092,76.867 320.419,76.676 320.619,76.383 C320.695,76.273 320.763,76.159 320.837,76.048 C320.837,76.048 320.837,76.049 320.847,76.049 C320.847,76.039 320.847,76.036 320.857,76.029 C321.414,75.189 321.928,74.33 322.404,73.454 C323.197,73.308 323.885,72.929 324.137,72.301 C324.659,71.514 325.129,70.683 325.563,69.825 C325.743,69.555 325.921,69.284 326.087,69.009 C326.129,68.939 326.168,68.867 326.21,68.797 C326.293,68.726 326.367,68.648 326.428,68.563 C327.993,66.384 329.073,63.987 329.998,61.511 C330.234,61.074 330.453,60.633 330.667,60.223 C331.329,58.957 331.84,57.69 332.229,56.314 C332.976,53.67 333.346,50.934 333.78,48.226 C333.995,46.888 331.409,47.255 330.871,47.729" fill="#EDEDED" id="path3732"/>
    <path d="M197.941,14.519 C197.958,14.556 197.973,14.594 197.989,14.634 C197.945,14.864 197.907,15.098 197.878,15.333 C197.878,15.134 197.879,14.937 197.868,14.743 C197.894,14.667 197.917,14.593 197.94,14.519 M235.901,43.09 C235.128,41.238 232.752,39.071 230.552,40.021 C229.039,38.966 227.532,37.901 226.042,36.812 C222.328,34.099 218.669,31.259 215.179,28.265 C211.971,25.514 208.868,22.664 206.161,19.413 C204.775,17.747 203.468,16.03 202.25,14.238 C201.008,12.411 199.672,10.583 199.147,8.416 C198.838,7.145 196.142,7.415 195.686,8.416 C194.059,11.994 193.297,16.141 192.921,20.04 C192.655,21.252 192.487,22.483 192.208,23.69 C191.886,25.085 191.265,26.431 191.064,27.853 C190.68,30.539 190.896,33.474 191.034,36.174 C191.172,38.848 191.618,41.523 192.139,44.148 C192.517,46.047 192.948,47.946 193.445,49.831 C193.456,49.926 193.461,50.024 193.472,50.118 C193.886,53.3 194.607,56.512 195.424,59.609 C196.013,61.848 196.647,64.078 197.337,66.29 C194.885,65.071 192.345,63.877 190.109,62.278 C189.702,61.59 189.013,60.71 188.181,61.112 C188.107,61.148 188.034,61.182 187.96,61.218 C187.679,61.356 187.388,61.514 187.371,61.867 C187.236,64.577 188.712,67.526 189.83,69.92 C190.546,71.458 191.459,72.789 192.519,74.007 C193.194,75.054 193.903,76.081 194.656,77.083 C196.103,79.014 197.599,81.094 199.645,82.41 C199.211,82.759 199.034,83.224 199.759,83.593 C203.435,85.467 208.406,84.978 212.305,84.06 C216.645,83.038 220.688,81.221 224.198,78.456 C231.238,72.91 236.132,64.948 237.404,56.025 C238.023,51.679 237.603,47.16 235.901,43.09" fill="#EDEDED" id="path3734"/>
    <path d="M210.295,75.785 C212.488,64.304 216.582,56.725 225.885,52.334 C215.595,49.196 207.128,42.419 202.713,31.083 C199.485,52.772 201.48,66.484 210.295,75.785" fill="#F48C8C" id="path3736"/>
    <path d="M307.753,55.233 C316.058,52.234 318.788,43.594 318.988,37.126 C321.263,42.577 321.661,62.355 315.241,70.993 C315.097,70.653 307.753,55.233 307.753,55.233" fill="#F48C8C" id="path3738"/>
  </g>
  <g id="g3742" opacity="0.3">
    <path d="M190.58,224.842 C190.029,223.638 189.357,222.424 188.751,221.182 C186.809,223.563 164.055,231.901 153.663,231.592 C156.122,234.491 162.895,235.037 166.7,236.047 C171.13,237.223 176.299,236.452 180.794,235.936 C185.271,235.423 189.719,234.41 193.717,232.272 C194.013,232.114 194.314,231.945 194.614,231.764 C192.882,229.74 191.699,227.288 190.58,224.842" fill="#1D1D1B" id="path3740"/>
  </g>
  <g id="g3746" opacity="0.3">
    <path d="M94.515,139.683 C94.919,137.037 95.509,134.376 95.705,131.713 C95.717,131.562 95.407,131.577 95.357,131.683 C93.668,135.237 93.315,139.426 93.468,143.486 C93.042,145.337 92.729,147.212 92.547,149.102 C91.539,146.61 91.067,143.903 91.17,141.217 C89.432,146.628 88.936,152.419 89.646,158.056 C89.313,157.18 89.013,156.286 88.757,155.364 C88.735,155.285 88.536,155.294 88.535,155.383 C88.509,157.344 89.17,159.143 90.095,160.834 C90.698,163.867 91.655,166.829 92.965,169.632 C94.258,172.401 95.891,175.006 97.8,177.391 C97.212,176.864 96.64,176.321 96.099,175.745 C93.692,173.181 91.955,169.933 91.197,166.491 C91.174,166.386 90.918,166.404 90.912,166.515 C90.696,170.744 93.171,174.252 96.131,177.056 C97.613,178.46 99.238,179.728 100.897,180.917 C101.022,181.006 101.147,181.098 101.272,181.191 C104.833,184.616 109.029,187.382 113.607,189.241 L110.782,186.968 C111.803,187.829 113.024,188.449 114.321,188.767 C108.824,184.743 103.094,180.349 100.608,174.007 C99.126,170.227 98.941,166.044 99.373,162.007 C100.52,151.297 105.796,141.462 111.887,132.578 C117.977,123.694 124.993,115.421 130.334,106.067 C128.063,108.802 125.507,111.25 122.826,113.574 C124.549,110.596 125.958,106.845 125.331,103.625 C125.289,103.407 124.791,103.335 124.729,103.574 C124.226,105.502 124.1,107.5 123.486,109.411 C122.88,111.298 122.019,113.096 120.934,114.754 C120.713,115.093 120.48,115.425 120.24,115.753 C118.741,116.986 117.219,118.198 115.699,119.412 C116.474,118.43 117.16,117.396 117.644,116.296 C117.78,115.987 117.161,116.004 117.025,116.132 C114.921,118.1 113.272,120.582 111.351,122.733 C111.099,123.015 110.844,123.297 110.591,123.579 C110,124.079 109.412,124.582 108.832,125.094 C108.832,125.084 108.842,125.082 108.842,125.076 C110.243,122.31 111.732,119.516 112.476,116.495 C112.546,116.212 112.029,116.21 111.916,116.397 C110.34,119.023 109.214,121.879 107.846,124.617 C107.425,125.46 107.007,126.304 106.588,127.148 C106.473,127.257 106.355,127.363 106.241,127.473 C103.542,130.074 100.941,133.129 100.409,136.839 C100.479,132.92 101.131,129.012 102.339,125.284 C98.866,129.542 96.213,134.458 94.515,139.683 M271.585,175.298 C271.665,175.169 271.74,175.036 271.818,174.905 C272.453,174.13 273.015,173.277 273.519,172.382 C273.544,172.345 273.569,172.308 273.594,172.271 C273.607,172.255 273.621,172.239 273.634,172.223 C273.044,173.28 272.374,174.303 271.585,175.298 M327.017,60.248 C326.788,60.401 326.565,60.559 326.338,60.714 C326.192,60.659 325.981,60.671 325.899,60.779 C325.762,60.96 325.618,61.135 325.474,61.309 C324.008,62.346 322.589,63.427 321.179,64.558 C321.032,64.592 320.903,64.657 320.824,64.763 C320.785,64.815 320.749,64.868 320.71,64.92 C320.033,65.434 319.295,65.948 318.583,66.495 C318.906,66.003 319.204,65.484 319.465,65.012 C320.622,63.902 321.725,62.728 322.621,61.446 C322.682,61.357 322.504,61.333 322.454,61.384 C321.647,62.192 320.877,63.031 320.106,63.871 C321.214,61.997 322.495,59.996 322.726,57.797 C322.748,57.588 322.335,57.612 322.245,57.714 C320.876,59.268 320.026,61.177 319.038,62.979 C318.662,63.666 318.277,64.349 317.896,65.033 C317.098,65.191 317.273,64.278 317.208,63.618 C317.078,62.303 317.113,60.948 317.164,59.63 C317.244,57.55 317.294,55.462 317.384,53.382 C317.609,52.745 317.806,52.091 317.981,51.423 C318.784,48.344 319.069,45.069 319.318,41.88 C319.38,42.556 319.426,43.234 319.45,43.913 C319.484,44.858 319.756,45.621 319.854,46.572 C319.864,46.643 320.005,46.64 320.015,46.572 C320.154,45.699 320.438,45.073 320.429,44.209 C320.419,43.422 320.36,42.632 320.288,41.849 C320.232,41.229 320.16,40.624 320.033,40.013 C319.951,39.627 319.863,39.243 319.768,38.86 C319.712,38.419 319.543,38.025 319.263,37.677 C319.284,37.687 319.314,37.678 319.327,37.667 C319.345,37.653 319.362,37.637 319.38,37.623 C319.394,37.61 319.39,37.591 319.38,37.578 C319.365,37.559 319.35,37.54 319.335,37.521 C319.298,37.473 319.208,37.482 319.166,37.521 C319.152,37.488 319.143,37.454 319.128,37.421 C319.114,37.389 319.049,37.39 319.035,37.421 C318.588,38.354 318.609,39.448 318.46,40.465 C318.408,40.814 318.351,41.165 318.302,41.517 C317.721,44.009 316.852,46.322 315.845,48.645 C315.746,48.781 315.644,48.916 315.538,49.048 C315.477,49.124 315.412,49.197 315.349,49.272 C314.963,49.563 314.522,49.793 314.142,49.855 C313.89,49.839 313.648,49.747 313.431,49.527 C313.292,49.387 313.175,49.221 313.074,49.04 C313.085,48.466 313.152,47.915 313.185,47.633 C313.263,46.976 313.383,46.334 313.531,45.702 C313.67,45.509 313.806,45.317 313.933,45.127 C317.22,40.239 319.56,34.434 321.528,28.904 C322.485,26.216 323.4,23.275 323.081,20.392 C322.784,17.712 321.739,15.556 319.853,13.65 C319.84,13.636 319.823,13.625 319.808,13.612 C319.697,12.84 317.805,12.868 317.626,13.724 C317.578,13.815 317.55,13.92 317.548,14.043 C317.548,14.1 317.538,14.154 317.538,14.21 C317.51,14.381 317.482,14.551 317.453,14.721 C317.152,14.888 316.943,15.145 316.929,15.5 C316.874,16.836 316.787,18.164 316.662,19.484 C316.463,19.541 316.304,19.648 316.261,19.807 C315.879,21.218 315.253,22.523 314.826,23.926 C314.405,25.314 313.899,26.661 313.382,28.015 C312.732,29.72 312.059,31.404 311.303,33.054 C310.734,34.163 310.169,35.275 309.61,36.39 C309.56,36.491 309.508,36.591 309.457,36.692 C309.398,36.801 309.338,36.91 309.279,37.02 C308.309,38.387 307.302,39.737 306.335,41.116 C305.072,42.918 303.232,45.027 302.944,47.293 C302.643,46.888 302.342,46.482 302.028,46.089 C301.99,46.041 301.81,46.059 301.851,46.136 C302.205,46.806 302.566,47.472 302.928,48.136 C303.02,49.12 303.503,49.959 304.237,50.54 C304.68,51.356 305.121,52.172 305.549,52.996 C305.488,54.886 306.145,56.248 307.285,57.738 C307.719,58.306 308.151,58.877 308.581,59.451 C309.46,61.502 310.288,63.574 311.096,65.654 C311.849,67.594 312.548,69.552 313.232,71.516 C313.386,72.308 313.56,73.096 313.762,73.879 C314.179,75.504 314.604,78.33 315.967,79.582 C316.305,80.593 316.655,81.603 317.043,82.592 C317.901,85.363 318.899,88.108 319.723,90.842 C320.487,93.374 321.33,95.886 322.042,98.432 C322.409,99.746 322.73,101.074 322.921,102.425 C322.934,102.521 322.945,102.617 322.956,102.713 C322.832,104.976 323.191,107.279 323.263,109.548 C323.355,112.385 323.185,115.127 322.964,117.953 C322.954,118.051 323.052,118.104 323.164,118.12 C322.566,120.38 321.759,122.572 320.679,124.649 C319.107,127.672 317.158,130.458 314.923,133.004 C314.9,133.014 314.878,133.026 314.862,133.039 C313.292,134.292 312.019,135.805 310.608,137.225 C309.086,138.757 307.425,140.128 305.698,141.423 C302.415,143.884 298.801,145.904 294.965,147.365 C291.119,148.83 287.221,149.527 283.158,150.029 C281.601,150.221 279.869,150.642 278.824,151.908 C278.725,152.029 278.639,152.153 278.561,152.28 C278.485,152.311 278.415,152.343 278.356,152.376 C278.194,152.325 278.031,152.278 277.872,152.238 C269.516,150.12 260.641,151.18 252.208,149.399 C248.509,148.619 244.947,147.301 241.44,145.891 C236.315,143.829 231.276,141.554 226.335,139.082 C225.451,138.371 224.595,137.626 223.769,136.848 C221.623,134.827 219.695,132.59 217.928,130.232 C216.153,127.864 214.565,125.301 213.178,122.687 C212.515,121.439 211.929,120.156 211.341,118.871 C211.129,118.408 210.957,117.841 210.748,117.294 C211.282,118.062 211.85,118.806 212.453,119.521 C212.952,120.378 213.527,121.196 214.311,121.774 C214.398,121.838 214.642,121.812 214.608,121.665 C214.466,121.055 214.168,120.471 213.822,119.901 C213.359,118.821 212.607,117.798 212.068,116.777 C211.87,116.403 211.681,116.024 211.498,115.642 C211.034,114.482 210.577,113.32 210.185,112.133 C209.812,110.914 209.523,109.681 209.274,108.437 C209.635,109.1 210.027,109.738 210.467,110.33 C210.531,110.416 210.702,110.443 210.841,110.412 C210.867,110.471 210.892,110.53 210.919,110.589 C210.946,110.647 211.122,110.652 211.109,110.573 C210.481,106.84 209.766,103.116 209.15,99.377 C209.126,99.018 209.106,98.658 209.091,98.296 C209.081,98.134 209.081,97.972 209.077,97.809 C209.118,98.098 209.161,98.388 209.209,98.677 C209.224,98.771 209.426,98.777 209.435,98.677 C209.637,96.231 209.516,93.66 209.092,91.145 C209.082,90.257 209.036,89.371 208.939,88.497 C208.911,88.236 208.877,87.974 208.841,87.713 C208.763,87.051 208.661,86.38 208.529,85.714 C208.933,86.838 209.114,88.045 209.637,89.113 C209.722,89.286 210.21,89.347 210.26,89.113 C210.523,87.882 210.154,86.528 209.596,85.272 C209.596,84.367 209.32,83.443 209.036,82.542 C209.036,81.789 209.088,81.054 209.268,80.309 C209.414,79.702 209.609,79.354 209.547,78.739 C209.537,78.657 209.41,78.671 209.366,78.708 C208.974,79.033 208.688,79.457 208.473,79.928 C207.832,78.09 206.752,76.358 205.781,74.716 C205.419,73.873 205.053,73.033 204.705,72.176 C204.655,72.053 204.43,72.033 204.31,72.104 C204.214,72.091 204.106,72.124 204.1,72.214 C203.995,73.823 204.201,75.431 204.599,77.011 C202.843,74.752 200.627,72.976 198.295,71.262 C195.657,69.324 193.34,67.238 191.467,64.625 C191.323,64.29 191.169,63.952 191.005,63.62 C191.015,63.462 191.032,63.303 191.057,63.145 C192.27,63.74 193.464,64.373 194.633,65.054 C195.388,65.493 196.133,65.949 196.867,66.422 C197.575,66.879 198.643,67.366 199.114,68.083 C199.717,69.003 202.16,69.26 202.304,67.811 C202.439,66.442 201.979,64.858 201.729,63.505 C201.518,62.361 201.258,61.227 201.012,60.09 C200.45,57.484 199.885,54.879 199.369,52.264 C198.354,47.121 197.435,41.948 197.123,36.707 C196.848,32.106 197.026,27.461 197.908,22.929 C198.724,18.736 200.285,14.855 201.673,10.855 C201.958,10.322 202.244,9.79 202.53,9.257 C202.683,8.974 202.553,8.56 202.342,8.349 C200.996,6.997 198.866,7.262 197.479,8.422 C195.96,9.691 194.949,11.927 193.995,13.626 C191.86,17.429 190.3,21.532 189.353,25.788 C188.417,29.995 188.122,34.292 188.453,38.59 C188.616,40.705 189.003,42.782 189.595,44.821 C190.188,46.864 191.16,48.568 192.259,50.313 C192.394,50.947 192.537,51.578 192.689,52.207 C193.285,54.677 194,57.121 194.807,59.53 C195.293,60.979 195.811,62.471 196.483,63.873 C196.322,63.773 196.161,63.675 195.999,63.583 C194.31,62.622 192.572,61.754 190.803,60.949 C190.27,60.706 189.118,60.8 188.86,61.448 C188.86,61.448 188.86,61.459 188.85,61.464 C188.76,61.321 188.666,61.178 188.565,61.04 C188.35,60.746 187.398,60.705 187.297,61.144 C186.722,63.635 187.966,66.841 188.907,69.133 C190.027,71.862 191.489,74.42 193.192,76.827 C194.803,79.103 196.713,81.108 198.559,83.189 C199.2,83.912 199.771,84.644 200.29,85.397 C200.359,85.568 200.429,85.738 200.495,85.91 C200.89,86.944 201.216,88.04 201.582,89.118 C201.475,89.481 201.369,89.844 201.273,90.209 C199.653,95.81 198.577,101.616 198.863,107.436 C198.637,107.298 198.205,107.352 198.191,107.621 C198.015,111.068 198.287,114.54 199.436,117.821 C200.041,119.549 200.94,121.111 201.985,122.58 C202.689,124.028 203.638,125.403 204.509,126.658 C206.094,128.939 208.035,130.992 210.066,132.88 C210.731,133.498 211.422,134.086 212.124,134.661 C216.717,140 220.958,145.642 224.803,151.542 C223.428,148.373 222.052,145.204 220.677,142.036 C226.77,148.574 233.185,155.793 234.059,164.688 C234.14,165.519 234.173,166.363 234.414,167.162 C234.627,167.869 234.997,168.515 235.332,169.172 C236.735,171.922 237.555,174.961 237.768,178.04 C236.685,182.848 235.543,187.644 234.5,192.461 C233.567,196.774 233.346,201.009 233.853,205.313 C233.736,210.392 234.047,215.663 236.932,219.771 C238.893,218.947 240.819,218.037 242.705,217.052 C242.909,217.255 243.134,217.435 243.381,217.589 C244.269,220.265 245.54,222.761 247.127,225.067 C248.294,227.298 249.605,229.445 251.189,231.442 C251.839,232.262 253.943,232.383 255.246,231.883 C255.623,232.045 256,232.195 256.364,232.337 C258.416,233.137 260.231,234.185 261.645,235.917 C262.752,237.272 263.61,238.83 264.156,240.477 C264.343,241.328 264.389,242.376 264.746,243.175 C264.948,245.013 264.746,246.887 264.049,248.659 C263.8,249.288 264.372,249.739 264.882,249.952 C265.394,250.165 265.956,250.275 266.524,250.285 C269.403,251.638 272.503,251.823 275.564,250.847 C276.765,250.464 278.358,249.646 279.466,248.52 C279.8,249.184 281.198,249.332 281.859,248.863 C282.318,249.03 282.78,249.147 283.17,249.215 C285.313,249.592 287.857,249.551 289.865,248.657 C290.011,248.592 290.144,248.523 290.273,248.452 C290.889,248.281 291.461,247.954 291.969,247.534 C292.19,247.614 292.42,247.673 292.633,247.709 C293.439,248.944 297.057,248.136 297.908,247.908 C298.156,247.842 298.404,247.766 298.65,247.684 C299.738,248.021 301.064,247.396 301.948,246.803 C302.103,246.699 302.248,246.593 302.383,246.481 C303.194,246.367 303.983,246.074 304.682,245.649 C305.463,245.173 306.311,244.298 305.78,243.333 C305.761,243.299 305.737,243.269 305.71,243.242 C306.295,242.182 306.34,241.03 305.866,239.813 C304.707,236.836 302.387,234.361 299.419,233.216 C299.359,233.193 299.198,233.206 299.23,233.308 C300.154,236.135 302.307,238.802 302.154,241.898 C302.119,242.611 302.005,243.288 301.746,243.941 C300.835,244.807 300.011,245.832 298.881,246.347 C297.568,246.944 296.008,247.425 294.547,247.283 C297.059,246.036 298.323,242.994 297.469,240.209 C296.957,238.537 295.862,237.019 294.369,236.108 C293.39,235.511 291.981,234.46 290.778,234.669 C290.744,234.679 290.714,234.692 290.707,234.728 C290.578,235.41 291.948,236.277 292.306,236.865 C292.857,237.77 293.445,238.784 293.721,239.808 C293.819,240.171 293.887,240.554 293.925,240.943 C293.893,240.834 293.859,240.725 293.823,240.616 C293.777,240.047 293.585,239.467 293.208,238.894 C293.096,238.581 292.417,238.639 292.366,238.966 C292.092,240.723 292.175,242.261 290.559,243.394 C289.874,243.873 289.071,244.311 288.253,244.49 C287.492,244.657 286.861,244.513 286.206,244.308 C286.015,244.1 285.821,243.895 285.627,243.685 C284.571,242.545 283.803,241.221 282.879,239.98 C281.23,237.768 279.138,236.263 276.653,235.119 C276.571,235.082 276.378,235.157 276.496,235.247 C276.508,235.257 276.518,235.265 276.53,235.274 C276.496,235.258 276.465,235.24 276.431,235.224 C276.381,235.201 276.255,235.255 276.333,235.304 C276.593,235.469 276.843,235.655 277.086,235.851 C276.946,235.866 276.81,235.933 276.919,236.051 C278.274,237.522 279.152,239.29 279.598,241.168 C278.942,242.927 277.437,244.071 275.461,244.625 C274.112,245.004 272.813,245.037 271.807,243.903 C271.549,243.612 271.293,243.271 271.05,242.909 C270.81,238.849 269.094,235.223 267.8,231.398 C266.382,227.209 266.352,222.983 266.926,218.631 C266.955,218.412 266.988,218.194 267.022,217.976 C268.614,215.22 269.694,212.215 271.151,209.384 C271.879,207.97 272.719,206.615 273.619,205.304 C274.455,204.087 275.256,202.763 276.139,201.59 C276.352,201.306 275.791,201.251 275.632,201.343 C275.632,201.343 275.622,201.343 275.622,201.343 C276.411,200.163 277.185,198.969 277.945,197.759 C278.507,196.864 276.248,196.599 275.763,197.179 C275.172,197.886 274.571,198.584 273.971,199.282 C273.68,199.443 273.396,199.616 273.12,199.801 C272.324,199.79 271.508,200.043 270.954,200.572 C270.408,201.093 269.872,201.62 269.34,202.15 C268.827,202.193 268.339,202.336 267.986,202.621 C267.891,202.687 267.797,202.754 267.702,202.82 C267.479,202.897 267.267,202.99 267.072,203.098 C264.4,204.586 261.802,206.194 259.281,207.912 C257.484,209.001 255.685,210.086 253.89,211.178 C252.822,211.81 251.764,212.458 250.711,213.115 C250.193,213.367 249.669,213.608 249.14,213.838 C249.047,213.712 248.955,213.585 248.861,213.459 C254.084,210.085 258.904,206.086 263.166,201.557 C258.883,204.175 254.228,206.178 249.389,207.513 C251.485,206.366 253.905,205.012 255.397,203.176 C255.638,202.881 255.025,202.833 254.865,202.918 C251.956,204.458 249.403,206.72 246.482,208.228 C244.846,208.583 243.194,208.866 241.532,209.065 C249.823,203.189 257.921,196.515 262.808,187.605 C259.426,191.951 255.646,196.051 251.123,199.193 C250.628,199.538 250.121,199.869 249.607,200.188 C251.437,198.516 253.083,196.643 254.407,194.548 C254.512,194.381 254.085,194.323 253.994,194.438 C251.907,197.067 249.684,199.55 247.025,201.617 C246.997,201.639 246.969,201.66 246.941,201.681 C245.361,202.472 243.716,203.129 242.029,203.625 C242.101,203.292 242.175,202.959 242.253,202.627 C242.266,202.616 242.28,202.605 242.293,202.594 C243.066,201.936 243.764,201.142 244.424,200.314 C244.544,200.183 244.663,200.051 244.779,199.918 C245.615,199.199 246.385,198.417 247.034,197.563 C247.202,197.342 246.743,197.304 246.616,197.409 C246.532,197.48 246.448,197.552 246.364,197.623 C246.301,197.579 246.159,197.573 246.121,197.633 C246.001,197.81 245.875,197.98 245.748,198.148 C244.785,198.968 243.826,199.779 242.824,200.544 C243.309,199.046 243.918,197.528 244.224,196.011 C245.935,193.821 247.481,191.502 248.835,189.074 C245.839,191.959 242.5,194.489 238.913,196.593 C243.059,192.056 246.172,186.581 247.953,180.698 C245.724,184.23 243.025,187.462 239.96,190.297 C240.461,188.488 240.917,186.664 241.383,184.835 C241.52,184.434 241.66,184.034 241.799,183.633 C241.776,183.76 241.749,183.886 241.727,184.013 C241.715,184.081 241.861,184.071 241.885,184.026 C243.526,180.917 244.392,177.182 244.808,173.521 C244.921,175.509 244.62,177.521 243.907,179.381 C243.92,179.369 243.932,179.355 243.944,179.343 C243.657,180.149 243.415,180.966 243.324,181.795 C243.314,181.857 243.449,181.859 243.475,181.821 C244.224,180.736 244.681,179.453 245.079,178.17 C247.24,175.818 249.011,173.112 250.308,170.193 C249.99,171.363 249.675,172.529 249.579,173.709 C249.562,173.915 249.949,173.861 250.022,173.747 C251.113,172.047 251.448,169.723 251.71,167.714 C251.96,169.343 252.206,170.972 252.406,172.606 C252.464,173.079 252.52,173.555 252.564,174.031 C252.574,174.969 252.574,175.906 252.602,176.842 C252.494,177.913 252.216,178.963 252.074,180.032 C252.059,180.141 252.088,180.229 252.142,180.3 C251.621,181.279 251.063,182.238 250.531,183.213 C250.494,183.251 250.474,183.29 250.468,183.328 C250.214,183.798 249.965,184.27 249.734,184.754 C249.692,184.842 249.873,184.835 249.911,184.801 C249.928,184.786 249.942,184.769 249.959,184.755 C250.147,184.908 250.611,184.904 250.794,184.809 C252.714,183.819 254.519,182.728 256.22,181.51 C255.425,182.257 254.651,183.025 253.917,183.831 C253.848,183.906 254.022,183.938 254.069,183.904 C256.027,182.535 257.856,180.995 259.658,179.425 C261.265,178.497 262.845,177.522 264.395,176.502 C267.705,174.636 270.818,172.489 273.468,169.82 C272.077,172.567 270.438,175.199 269.26,178.038 C269.186,178.216 269.563,178.246 269.643,178.14 C270.236,177.362 270.794,176.549 271.322,175.712 C271.367,175.73 271.438,175.728 271.468,175.701 C274.128,173.194 276.705,170.046 278.052,166.616 C278.689,164.992 279.094,163.271 279.364,161.55 C279.374,161.509 279.374,161.469 279.38,161.428 C279.436,161.628 279.495,161.827 279.556,162.025 C279.53,162.826 279.543,163.629 279.606,164.429 C279.655,165.064 280.357,165.404 281.087,165.445 C281.798,165.879 283.228,165.652 283.018,164.726 C282.947,164.413 282.883,164.098 282.819,163.783 C283.022,160.063 283.053,156.37 283.772,152.69 C283.847,152.304 283.328,152.045 282.982,151.943 C283.143,151.898 283.306,151.86 283.47,151.826 C285.18,151.474 286.939,151.382 288.654,151.031 C292.377,150.269 295.998,149.041 299.42,147.392 C302.676,145.822 305.783,143.904 308.564,141.589 C311.171,139.421 314.544,136.634 315.692,133.344 C315.702,133.329 315.702,133.316 315.702,133.302 C317.984,130.867 319.907,128.171 321.37,125.014 C322.467,122.645 323.399,120.174 324.047,117.644 C324.649,115.292 325.215,112.481 324.869,110.061 C324.859,110.004 324.78,109.974 324.712,109.978 C324.712,109.834 324.722,109.689 324.722,109.546 C324.752,107.098 324.767,104.54 324.156,102.16 C323.992,101.197 323.735,100.247 323.517,99.389 C322.845,96.736 321.952,94.127 321.085,91.533 C320.414,89.527 319.802,87.465 319.162,85.408 C318.949,83.703 318.505,82.003 317.985,80.327 C318.687,80.453 319.519,80.21 319.506,79.571 C319.506,79.533 319.506,79.497 319.496,79.46 C319.509,79.406 319.52,79.351 319.52,79.291 C319.52,79.219 319.51,79.145 319.51,79.073 C319.547,78.953 319.577,78.828 319.592,78.69 C319.592,78.674 319.592,78.658 319.592,78.641 C319.826,78.454 319.975,78.199 319.978,77.872 C319.992,76.025 319.834,74.227 319.519,72.443 C320.37,70.668 321.62,69.134 322.994,67.702 C323.084,67.609 323.175,67.516 323.265,67.423 C323.372,67.331 323.48,67.24 323.587,67.149 C323.611,67.128 323.608,67.111 323.597,67.098 C324.357,66.365 325.095,65.61 325.599,64.752 C325.637,64.688 325.494,64.684 325.464,64.702 C324.359,65.389 323.363,66.381 322.441,67.405 C322.128,67.646 321.824,67.896 321.532,68.16 C321.59,68.054 321.648,67.948 321.707,67.842 C321.77,67.78 321.83,67.718 321.894,67.656 C322.004,67.549 322.013,67.456 321.966,67.381 C322.316,66.769 322.677,66.163 323.053,65.565 C323.065,65.546 323.078,65.528 323.09,65.509 C323.874,64.458 324.655,63.406 325.429,62.348 C326.09,61.732 326.732,61.091 327.358,60.416 C327.522,60.239 327.113,60.169 327.003,60.243 M257.627,238.894 C257.551,238.86 257.407,238.876 257.367,238.961 C257.336,239.026 257.309,239.092 257.287,239.158 C257.237,239.083 257.187,239.008 257.133,238.931 C257.102,238.888 256.962,238.901 256.986,238.971 C257.055,239.178 257.128,239.384 257.201,239.59 C257.138,240.405 257.599,241.237 257.907,241.988 C257.944,242.076 257.975,242.165 258.01,242.254 C258.02,242.303 258.03,242.351 258.039,242.4 C258.197,243.341 258.021,244.327 258.303,245.233 C258.142,245.822 258.024,246.425 257.881,247.02 C257.444,247.598 257.085,248.248 256.626,248.821 C256.185,249.369 255.672,249.843 255.08,250.227 C254.928,250.326 254.445,250.639 254.003,250.854 C253.993,250.837 253.992,250.821 253.98,250.807 C255.882,246.447 253.05,242.172 249.452,239.686 C249.123,239.459 247.673,239.527 248.032,240.208 C249.426,242.851 251.429,245.118 251.328,247.932 C251.085,247.994 250.892,248.139 250.881,248.371 C250.871,248.54 250.852,248.698 250.825,248.852 C250.684,249.356 250.323,249.89 250.089,250.392 C248.711,251.916 245.813,252.105 243.584,252.541 C243.176,252.439 242.695,252.413 242.205,252.388 C243.088,250.123 242.53,247.695 241.159,245.728 C239.454,243.282 236.85,242.473 234.497,240.865 C234.151,240.628 233.237,240.942 233.748,241.337 C235.553,242.735 236.405,244.889 236.595,247.119 C236.629,247.533 236.664,247.994 236.678,248.473 C236.618,249.136 236.573,249.801 236.557,250.466 C236.557,250.523 236.557,250.576 236.557,250.632 C236.513,250.889 236.455,251.14 236.381,251.382 C235.8,251.801 235.372,252.393 234.73,252.804 C233.375,253.673 231.762,253.887 230.186,253.902 C229.327,253.912 228.405,253.941 227.509,253.867 C227.481,253.85 227.453,253.837 227.425,253.82 C225.329,252.494 225.109,249.419 223.281,247.742 C222.19,246.742 220.681,246.378 219.311,245.817 C215.739,244.356 212.673,240.178 214.469,236.761 C212.994,238.084 211.781,239.699 210.923,241.486 C209.075,239.119 207.198,236.671 205.572,234.109 C205.208,232.735 204.81,231.368 204.508,229.979 C204.016,227.719 203.865,225.39 203.172,223.181 C203.102,222.959 202.642,223.016 202.601,223.229 C202.193,225.384 202.601,227.54 203.109,229.65 C201.893,227.018 201.068,224.258 200.901,221.339 C200.327,223.117 199.754,224.895 199.182,226.674 C199.127,226.401 199.072,226.128 199.029,225.855 C198.818,224.517 198.689,223.166 198.59,221.814 C198.393,219.098 198.653,216.388 198.357,213.683 C198.338,213.505 197.973,213.486 197.914,213.644 C197.058,215.936 196.974,218.339 197.106,220.756 C196.603,218.056 196.299,215.33 196.338,212.586 C196.411,207.421 197.775,202.152 200.938,198.067 C195.752,198.4 190.844,201.613 188.465,206.234 C188.475,205.966 188.481,205.699 188.491,205.432 C188.575,205.181 188.666,204.932 188.759,204.684 C190.778,201.785 193.355,199.424 196.345,197.335 C196.493,197.232 196.234,197.153 196.14,197.206 C194.197,198.283 192.133,199.585 190.42,201.188 C191.773,198.848 193.449,196.685 194.983,194.466 C195.079,194.329 194.809,194.309 194.733,194.374 C192.278,196.452 190.307,198.876 188.88,201.769 C188.839,201.853 188.797,201.941 188.756,202.026 C189.263,197.721 190.408,193.491 192.152,189.522 C189.994,191.278 188.157,193.413 186.709,195.787 C186.739,195.628 186.767,195.468 186.8,195.31 C187.399,192.415 188.289,189.579 189.177,186.763 C190.045,184.012 190.86,181.259 191.467,178.435 C191.926,176.295 192.791,173.212 191.863,171.062 C192.18,169.835 192.454,168.594 192.68,167.336 C193.205,166.158 193.626,164.943 193.717,163.792 C193.738,163.533 193.196,163.525 193.086,163.684 C191.8,165.546 191.115,167.994 190.197,170.064 C189.898,170.74 189.587,171.411 189.274,172.08 C189.257,172.093 189.242,172.108 189.227,172.124 C189.396,170.439 189.427,168.74 189.325,167.049 C190.007,164.715 190.392,162.312 190.324,159.851 C190.324,159.713 190.004,159.694 189.976,159.821 C189.639,161.37 189.346,162.926 189.062,164.485 C188.662,161.675 187.891,158.917 186.75,156.317 C184.952,156.894 183.939,158.728 182.864,160.28 C182.327,161.055 181.631,161.826 180.84,162.345 C181.518,161.14 182.071,159.78 182.094,158.404 C182.094,158.143 181.619,158.198 181.524,158.355 C180.918,159.352 180.54,160.438 180.103,161.515 C179.916,161.979 179.735,162.445 179.551,162.91 C179.127,163.004 178.69,163.008 178.246,162.891 C176.455,162.421 175.711,160.337 175.244,158.545 C174.447,160.699 174.203,163.051 174.52,165.325 C174.363,165.364 174.211,165.404 174.069,165.44 C172.201,165.915 170.368,166.586 168.599,167.347 C165.15,168.832 162.037,170.751 159.229,173.244 C159.082,173.375 159.434,173.462 159.533,173.393 C162.035,171.628 164.699,170.011 167.455,168.673 C168.815,168.014 170.209,167.43 171.633,166.925 C172.452,166.634 173.339,166.286 174.24,166.044 C166.896,169.489 160.476,174.884 155.828,181.533 C157.781,180.111 159.857,178.858 162.02,177.781 C157.368,181.186 153.097,185.27 149.66,189.917 C149.346,190.508 149.041,191.106 148.756,191.714 C147.882,194.107 146.961,196.483 146.06,198.867 C145.981,199.131 145.9,199.394 145.824,199.659 C146.066,199.586 146.271,199.465 146.384,199.283 C146.446,199.181 146.511,199.082 146.574,198.981 C146.948,199.027 147.351,198.951 147.536,198.71 C147.553,198.688 147.571,198.667 147.587,198.645 C147.692,198.606 147.78,198.559 147.836,198.503 C150.962,195.336 154.088,192.17 157.213,189.003 C158.602,187.968 160.011,186.963 161.454,186.006 C165.962,184.074 170.382,181.967 174.704,179.643 C177.233,179.018 179.802,178.596 182.393,178.258 C183.305,178.238 184.218,178.248 185.128,178.306 C181.806,191.475 178.456,204.974 179.844,218.485 C181.376,217.619 182.908,216.753 184.44,215.886 C185.045,215.544 185.745,215.191 186.404,215.41 C187.051,215.626 187.401,216.308 187.689,216.927 C190.196,222.318 193.012,227.565 196.12,232.633 C197.606,235.057 199.179,237.464 201.241,239.42 C202.831,240.927 204.675,242.131 206.531,243.298 C207.175,244.071 207.838,244.827 208.607,245.492 C210.769,247.362 214.168,249.523 217.212,249.976 C219.059,251.113 220.941,252.199 222.939,253.013 C223.202,253.404 223.575,253.754 223.925,253.99 C225.514,255.061 227.789,255.038 229.623,255.056 C231.468,255.076 233.409,254.929 235.088,254.094 C235.612,253.834 236.578,253.273 237.138,252.612 C237.307,252.827 237.516,253.025 237.779,253.202 C239.2,254.149 242.036,254.392 243.614,253.432 C245.417,253.442 247.426,252.921 248.951,252.375 C249.385,252.22 249.802,252.024 250.188,251.79 C250.334,251.91 250.538,252.018 250.813,252.112 C251.613,252.385 252.733,252.272 253.437,251.725 C254.499,251.715 256.391,250.65 256.726,250.376 C256.764,250.345 256.8,250.311 256.838,250.279 C256.838,250.389 256.848,250.498 256.872,250.605 C257.042,251.353 258.762,251.388 259.237,250.783 C261.482,250.211 262.332,247.128 262.01,245.164 C261.584,242.567 260.111,239.993 257.625,238.894 M173.867,252.202 C172.31,251.57 170.605,251.488 168.961,251.23 C167.103,250.939 165.263,250.504 163.471,249.935 C159.87,248.791 156.531,247.103 153.343,245.088 C150.264,243.145 147.488,240.839 144.849,238.339 C143.51,237.071 142.246,235.733 140.962,234.41 C140.818,234.261 140.677,234.109 140.536,233.954 C139.636,232.694 138.76,231.422 137.947,230.101 C137.483,229.348 137.043,228.54 136.568,227.761 C133.947,222.428 130.505,217.383 126.206,213.309 C126.103,213.211 125.834,213.206 125.691,213.28 C125.651,213.252 125.551,213.256 125.554,213.313 C125.596,214.256 125.941,215.216 126.302,216.144 C126.389,216.422 126.505,216.709 126.626,216.98 C126.682,217.127 126.737,217.273 126.788,217.416 C127.303,218.87 127.863,220.308 128.399,221.753 C128.647,222.424 128.88,223.117 129.113,223.817 C128.977,223.652 128.837,223.484 128.703,223.32 C127.312,221.625 125.87,219.972 124.475,218.28 C123.629,217.255 122.688,216.224 121.818,215.15 C120.848,213.544 119.665,211.98 118.829,210.316 C118.778,210.215 118.514,210.227 118.549,210.365 C118.559,210.396 118.563,210.427 118.571,210.458 C118.525,210.448 118.472,210.458 118.469,210.505 C118.332,213.228 119.016,216.071 119.928,218.664 C119.983,218.861 120.035,219.058 120.093,219.254 C120.043,219.379 120.044,219.523 120.13,219.688 C120.234,219.924 120.335,220.161 120.438,220.398 C120.65,221.077 120.874,221.753 121.104,222.426 C119.642,221.529 118.158,220.674 116.687,219.845 C109.237,215.643 101.31,211.231 97.125,203.771 C98.407,209.591 101.062,215.103 104.815,219.733 C86.761,209.928 69.477,196.209 62.351,176.941 L66.268,180.844 C60.805,169.041 55.381,156.572 56.17,143.589 C59.571,150.997 63.78,158.033 68.699,164.532 C66.715,152.532 69.246,139.84 75.681,129.519 L68.131,135.692 C73.177,128.287 77.955,120.7 82.456,112.953 C84.467,110.547 86.395,108.08 88.033,105.397 C88.145,105.214 87.711,105.198 87.621,105.287 C86.941,105.958 86.282,106.645 85.634,107.342 C86.263,106.161 86.838,104.994 87.374,103.833 C88.663,102.178 89.864,100.45 90.933,98.606 C91.03,98.439 90.634,98.408 90.55,98.504 C89.943,99.198 89.348,99.902 88.757,100.611 C89.202,99.491 89.612,98.371 89.991,97.244 C90.429,96.721 90.806,96.143 91.131,95.644 C92.384,93.72 93.336,91.655 94.106,89.494 C95.463,85.688 96.805,80.705 95.654,76.698 C95.57,76.404 94.83,76.397 94.752,76.698 C94.309,78.395 94.258,80.201 94.003,81.933 C93.707,83.938 93.276,85.941 92.699,87.883 C92.514,88.508 92.305,89.125 92.084,89.738 C92.68,87.143 93.186,84.45 93.657,81.589 C94.324,77.534 94.533,73.34 94.171,69.227 C94.466,66.71 94.501,64.164 94.225,61.687 C94.209,61.549 93.917,61.548 93.902,61.687 C93.787,62.758 93.676,63.829 93.566,64.899 C92.655,60.216 90.913,55.749 88.148,51.851 C90.124,54.792 90.507,58.738 89.134,62.004 C88.447,61.502 87.724,61.018 86.973,60.553 C83.446,57.911 79.489,55.814 75.499,53.926 C74.632,53.433 73.731,53 72.77,52.662 C72.668,52.627 72.503,52.64 72.349,52.684 C71.789,52.425 71.227,52.171 70.661,51.923 C70.585,51.89 70.47,51.896 70.363,51.923 C69.971,51.711 69.579,51.499 69.186,51.293 C69.086,51.24 68.828,51.339 68.981,51.422 C69.045,51.457 69.109,51.495 69.174,51.53 C69.06,51.556 68.97,51.629 69.094,51.713 C69.337,51.879 69.577,52.047 69.819,52.213 C69.809,52.246 69.832,52.282 69.894,52.318 C70.091,52.433 70.286,52.552 70.482,52.669 C70.514,52.691 70.546,52.713 70.578,52.735 C70.588,52.774 70.613,52.815 70.668,52.852 C70.668,52.852 70.668,52.852 70.668,52.852 C70.819,52.933 70.967,53.018 71.117,53.101 C72.183,53.838 73.246,54.58 74.305,55.328 C71.546,54.64 68.707,54.186 65.894,54.006 C62.982,52.964 59.641,52.804 56.768,53.525 C56.429,53.61 56.517,53.943 56.854,53.925 C58.284,53.847 59.658,53.869 61.005,53.983 C55.692,54.285 50.714,55.706 46.848,58.55 C49.699,57.24 55.576,59.246 59.557,60.613 C58.472,60.815 57.451,61.12 56.742,61.339 C53.471,62.35 50.758,64.434 47.989,66.365 C47.791,66.503 48.137,66.607 48.263,66.538 C50.782,65.166 53.405,63.856 56.103,62.869 C57.237,62.454 58.314,62.153 59.391,61.948 C51.546,64.324 42.019,70.47 40.144,77.806 C41.1,76.323 44.768,75.087 47.593,74.225 C47.003,74.755 46.477,75.293 46.064,75.719 C43.994,77.853 42.803,80.473 41.552,83.131 C41.505,83.231 41.724,83.239 41.769,83.169 C42.96,81.336 44.328,79.65 45.745,77.996 C45.337,78.863 45.005,79.894 44.662,81.229 C43.59,85.402 37.966,90.078 33.751,90.97 C36.809,91.082 43.379,93.124 45.235,90.69 C44.806,94.338 42.958,97.801 40.166,100.188 C43.297,98.768 45.563,95.978 47.599,93.207 C50.474,89.296 53.135,85.226 55.566,81.024 C57.182,78.232 58.741,75.323 61.136,73.162 C64.717,69.931 70.051,68.777 74.646,70.24 C79.242,71.702 82.928,75.726 83.983,80.432 C84.412,82.345 84.428,84.363 83.924,86.259 C83.185,89.036 81.398,91.394 79.721,93.727 C70.194,106.977 62.988,121.889 58.527,137.586 C56.637,136.506 55.122,134.784 54.291,132.771 C51.349,136.994 50.58,142.31 49.892,147.411 C48.583,157.121 47.387,167.545 51.878,176.252 C56.423,185.061 61.143,193.093 66.68,201.315 C72.217,209.537 78.991,217.076 87.36,222.387 C92.709,225.782 98.611,228.209 104.563,230.379 C110.454,232.527 116.462,234.449 122.66,235.396 C124.972,235.749 127.321,235.97 129.546,236.689 C131.617,237.358 133.55,238.45 135.675,238.921 C135.685,238.897 135.689,238.868 135.698,238.843 C136.194,240.389 136.811,241.922 138.107,242.901 C138.381,243.108 138.797,243.136 139.142,243.016 C140.578,244.611 142.253,246.013 144.032,247.187 C144.293,247.359 144.558,247.527 144.825,247.69 C145.092,247.955 145.368,248.22 145.659,248.48 C145.769,248.578 146.086,248.575 146.155,248.454 C147.767,249.329 149.465,250.055 151.21,250.594 C152.232,250.91 153.822,251.416 155.299,251.529 C156.503,251.898 157.747,252.159 158.944,252.143 C160.797,252.614 162.834,253.078 164.711,252.705 C167.687,253.49 171.132,254.111 173.871,253.057 C174.368,252.867 174.352,252.392 173.871,252.195" fill="#1D1D1B" id="path3744"/>
    <path d="M257.083,147.429 C238.023,144.084 221.955,136.663 207.698,124.836 C195.797,113.368 206.42,82.331 206.42,82.331 C197.703,80.012 193.255,74.929 189.501,63.709 C192.29,65.78 194.832,66.914 199.397,68.572 C191.244,50.255 188.488,21.239 198.758,9.463 C207.561,24.562 220.712,36.71 234.222,44.61 C296.291,24.101 305.503,48.699 314.608,80.117 C338.751,130.945 296.291,159.218 257.083,147.429 M282.389,158.233 C282.278,159.751 282.138,161.276 281.931,162.785 C280.966,160.095 280.422,157.089 280.331,153.696 C281.035,153.646 281.734,153.579 282.43,153.506 C282.323,155.056 282.507,156.676 282.389,158.233 M290.317,178.278 C283.028,192.904 258.538,206.456 236.24,217.174 C231.749,202.993 238.928,190.782 238.611,177.706 C237.762,168.831 232.46,162.461 224.741,154.065 C224.499,153.804 224.096,153.706 223.743,153.919 C223.311,154.183 223.241,154.77 223.553,155.171 C231.288,165.108 235.513,172.328 235.963,178.167 C236.616,189.346 225.948,208.165 236.457,224.042 C239.233,228.763 247.455,231.73 253.979,233.493 C265.737,235.609 264.18,250.647 258.227,250.187 C260.368,247.121 259.722,238.792 254.434,235.596 C253.88,235.243 253.03,235.189 252.467,235.399 C251.74,235.669 251.708,236.232 251.952,236.8 C258.525,239.812 260.956,251.086 250.51,251.172 C254.3,245.511 248.344,234.11 238.429,236.393 C235.488,237.239 237.348,238.713 239.938,238.017 L239.928,238.007 C246.809,237.089 251.617,245.736 249.327,250.091 C246.628,252.265 243.298,253.462 238.192,252.252 C239.886,249.593 236.534,235.685 224.768,238.195 C221.826,239.04 223.688,240.511 226.277,239.818 L226.267,239.808 C233.429,238.851 238.347,248.261 235.349,252.407 C228.926,254.897 224.834,253.731 222.514,252.289 C219.868,250.637 217.075,249.227 214.242,247.927 C202.272,242.435 194.658,230.522 188.61,212.799 C185.643,213.688 183.155,215.496 181.236,217.51 C179.024,211.414 181.226,197.633 183.946,188.586 C185.258,184.211 186.109,179.713 186.656,175.18 C186.945,172.769 187.339,170.285 187.844,166.723 C187.907,166.279 187.641,165.828 187.201,165.729 C186.713,165.621 186.256,165.948 186.176,166.419 C185.811,168.588 185.293,171.669 184.839,174.599 C184.683,175.586 184.514,176.574 184.331,177.559 C182.984,177.222 180.96,177.651 179.934,177.772 C177.585,178.045 175.268,178.623 172.999,179.278 C168.529,180.564 164.225,182.458 160.226,184.828 C156.245,187.188 152.512,190.063 149.262,193.36 C146.139,196.531 142.981,200.394 141.886,204.781 C141.737,205.381 142.792,205.413 143.084,205.098 C145.956,202.007 148.443,198.583 151.368,195.527 C154.307,192.455 157.565,189.729 161.143,187.429 C164.641,185.187 168.383,183.366 172.313,182.016 C176.115,180.707 180.061,180.05 183.991,179.278 C183.47,181.797 182.836,184.294 182.069,186.749 C179.26,195.733 177.218,207.97 179.807,222.275 C182.539,218.936 184.683,218.291 186.802,217.751 C188.307,222.868 190.069,227.197 192.184,230.977 C192.139,230.998 192.095,231.019 192.052,231.041 C191.949,231.062 191.845,231.084 191.741,231.106 C191.756,231.131 191.77,231.157 191.783,231.182 C190.882,231.682 190.05,232.368 189.12,232.829 C187.743,233.511 186.251,234.019 184.759,234.373 C181.491,235.147 178.112,235.454 174.762,235.544 C171.248,235.637 167.789,235.444 164.32,234.866 C160.585,234.245 157.385,232.935 153.958,231.404 C153.855,231.358 153.519,231.43 153.661,231.591 C155.939,234.17 159.794,235.704 163.061,236.646 C166.913,237.756 171.033,238.074 175.022,238.208 C178.885,238.337 182.802,238.222 186.576,237.32 C186.852,237.255 187.127,237.185 187.401,237.113 C188.106,237.255 188.794,237.53 189.458,238.014 C191.562,239.551 192.595,242.4 192.18,244.944 C191.838,247.046 190.465,249.104 188.636,250.267 C159.804,252.116 144.767,250.667 137.912,237.117 C136.491,234.305 133.652,232.469 130.503,232.396 C100.071,229.21 76.667,223.492 53.061,170.748 C50.622,158.718 50.564,149.112 54.519,137.72 C55.485,139.54 59.11,141.726 60.975,142.644 C63.324,130.048 68.386,116.267 76.852,101.393 C84.028,89.09 91.638,78.734 77.331,69.915 C67.601,65.69 60.815,70.017 56.46,79.077 C46.539,95.453 39.076,105.463 18.038,94.227 C-1.972,81.148 3.25,67.825 23.778,48.317 C55.307,17.75 93.739,20.927 117.86,38.183 C120.678,40.6 122.286,42.062 124.579,44.495 C125.767,40.81 127.314,39.148 127.513,33.144 C132.772,40.14 135.342,48.615 137.115,56.154 C140.31,71.968 137.231,94.901 120.402,117.601 C85.864,161.666 88.641,185.619 123.88,192.582 C128.149,193.427 132.238,190.415 132.677,186.086 C135.609,157.092 150.367,131.865 205.97,129.327 C219.967,139.07 236.971,148.813 257.081,151.875 C263.7,153.343 270.173,153.994 276.335,153.88 C277.082,168.483 282.939,175.272 290.315,178.277 M248.031,228.924 C244.374,228.047 241.969,227.682 238.023,221.109 L241.585,219.28 C243.923,223.86 246.604,227.18 248.031,228.924 M279.915,219.928 C282.691,224.648 290.914,227.618 297.438,229.381 C309.199,231.494 307.638,246.533 301.685,246.072 C303.83,243.007 303.182,234.68 297.893,231.481 C297.34,231.132 296.491,231.075 295.926,231.284 C295.199,231.554 295.167,232.116 295.412,232.688 C301.985,235.697 304.415,246.971 293.97,247.06 C297.762,241.396 291.803,229.995 281.892,232.279 C278.947,233.127 280.808,234.598 283.397,233.905 L283.387,233.895 C290.269,232.975 295.078,241.622 292.791,245.98 C290.088,248.153 286.758,249.347 281.653,248.137 C283.35,245.478 279.995,231.573 268.231,234.08 C265.287,234.925 267.147,236.399 269.737,235.703 L269.727,235.693 C276.89,234.736 281.808,244.146 278.809,248.291 C272.376,250.785 268.285,249.613 265.969,248.168 C265.587,247.93 265.203,247.697 264.815,247.472 C267.115,242.211 264.688,232.205 251.384,229.736 C250.074,226.163 245.668,219.933 244.904,217.833 C253.125,213.439 268.056,204.91 275.45,199.398 C274.841,206.244 275.556,213.338 279.914,219.927 M193.6,249.927 C194.756,248.671 195.591,247.132 195.935,245.379 C196.641,241.781 194.708,238.016 191.547,236.223 C191.361,236.117 191.169,236.022 190.979,235.931 C191.401,235.758 191.82,235.575 192.234,235.376 C192.736,235.134 193.528,234.8 194.287,234.376 C198.164,240.09 203.087,244.508 209.505,248.679 C203.815,249.144 198.525,249.572 193.6,249.927 M318.099,14.991 C325.006,25.307 325.819,36.063 325.831,53.348 L332.172,49.3 C332.74,58.783 325.792,70.667 317.924,77.551 C315.84,65.495 311.87,55.67 305.767,48.335 C312.177,42.629 317.094,30.335 318.099,14.991 M334.617,42.734 L328.995,47.925 C330.806,35.218 326.783,18.168 317.146,7.58 C315.21,16.866 311.406,35.666 301.125,43.595 C287.698,31.99 266.474,29.493 235.818,37.905 C225.127,32.677 210.516,20.815 198.844,-0 C184.888,18.168 183.589,39.754 192.957,60.753 L183.023,56.137 C187.643,74.714 191.136,80.855 198.761,86.36 C196.731,101.955 193.577,115.135 200.925,124.621 C155.049,129.386 130.687,147.881 127.7,180.023 C127.298,184.363 123.244,187.448 118.965,186.618 C95.219,182.031 96.54,151.439 126.436,120.142 C141.879,100.395 146.132,83.822 142.495,58.901 C140.309,44.799 135.957,31.901 123.532,21.196 C124.029,25.935 123.486,28.909 121.782,33.153 C92.497,16.707 51.704,11.973 19.879,43.22 C-3.889,64.838 -6.946,84.057 13.974,99.957 C40.153,112.511 52.666,99.967 61.074,80.829 C64.903,73.409 68.938,70.187 75.897,74.111 C87.918,82.735 77.038,91.551 71.914,99.083 C64.922,111.367 61.088,122.871 58.219,134.081 C56.828,133.046 54.63,128.195 52.987,125.333 C47.758,140.155 44.372,159.216 48.724,171.805 C64.703,216.61 90.184,234.781 128.082,238.593 C130.776,238.863 133.184,240.401 134.572,242.726 C144.16,258.762 172.455,256.005 217.043,253.47 C218.032,254.022 219.035,254.563 220.052,255.093 C223.165,256.411 232.644,256.834 237.387,253.86 C241.313,255.067 246.924,255.09 248.373,253.13 C252.207,253.346 255.406,252.819 256.734,251.783 C259.145,251.916 261.035,251.379 262.436,250.404 C262.794,250.598 263.151,250.792 263.512,250.979 C266.63,252.298 276.105,252.72 280.849,249.747 C284.775,250.957 290.385,250.979 291.837,249.019 C295.671,249.232 298.866,248.708 300.195,247.669 C313.556,248.409 310.945,228.644 297.532,226.985 C294.769,226.213 285.095,225.384 280.236,214.615 C277.907,208.398 277.907,202.572 278.672,196.905 C286.334,190.726 292.317,184.007 294.606,176.948 C289.677,174.035 285.932,170.607 283.513,166.268 C284.426,164.184 284.873,161.757 285.146,159.673 C285.375,157.954 285.445,156.198 285.428,154.466 C285.428,154.031 285.438,153.558 285.375,153.129 C316.52,148.447 336.375,122.458 319.859,83.002 C331.035,73.456 335.532,59.278 334.617,42.734" fill="#2B2B2B" id="path3748"/>
  </g>
</svg>
